<mxfile host="app.diagrams.net" modified="2024-01-02T15:08:24.610Z" agent="Mozilla/5.0 (Macintosh; Intel Mac OS X 10_15_7) AppleWebKit/537.36 (KHTML, like Gecko) Chrome/120.0.0.0 Safari/537.36" etag="gH81AaUvofbIs5G-sO3j" version="22.1.16" type="device">
  <diagram name="Page-1" id="baVHlE9twaFP-Tbj7f7R">
    <mxGraphModel dx="722" dy="1591" grid="1" gridSize="10" guides="1" tooltips="1" connect="1" arrows="1" fold="1" page="1" pageScale="1" pageWidth="850" pageHeight="1100" math="0" shadow="0">
      <root>
        <mxCell id="0" />
        <mxCell id="1" parent="0" />
        <mxCell id="5acg_06QXvOivbpcsrh0-3" value="" style="edgeStyle=orthogonalEdgeStyle;rounded=0;orthogonalLoop=1;jettySize=auto;html=1;" edge="1" parent="1" source="5acg_06QXvOivbpcsrh0-1" target="5acg_06QXvOivbpcsrh0-2">
          <mxGeometry relative="1" as="geometry" />
        </mxCell>
        <mxCell id="5acg_06QXvOivbpcsrh0-1" value="Scorrer&lt;br&gt;" style="shape=umlActor;html=1;verticalLabelPosition=bottom;verticalAlign=top;align=center;" vertex="1" parent="1">
          <mxGeometry x="60" y="-330" width="30" height="60" as="geometry" />
        </mxCell>
        <mxCell id="5acg_06QXvOivbpcsrh0-2" value="" style="html=1;verticalLabelPosition=bottom;labelBackgroundColor=#ffffff;verticalAlign=top;shadow=0;dashed=0;strokeWidth=1;shape=mxgraph.ios7.misc.ipad10inch;strokeColor=#c0c0c0;" vertex="1" parent="1">
          <mxGeometry x="160" y="-465" width="260" height="330" as="geometry" />
        </mxCell>
        <mxCell id="5acg_06QXvOivbpcsrh0-4" value="" style="endArrow=none;html=1;rounded=0;entryX=0.045;entryY=0.212;entryDx=0;entryDy=0;entryPerimeter=0;exitX=0.964;exitY=0.209;exitDx=0;exitDy=0;exitPerimeter=0;" edge="1" parent="1" source="5acg_06QXvOivbpcsrh0-2" target="5acg_06QXvOivbpcsrh0-2">
          <mxGeometry width="50" height="50" relative="1" as="geometry">
            <mxPoint x="330" y="-220" as="sourcePoint" />
            <mxPoint x="380" y="-270" as="targetPoint" />
          </mxGeometry>
        </mxCell>
        <mxCell id="5acg_06QXvOivbpcsrh0-27" value="" style="html=1;verticalLabelPosition=bottom;labelBackgroundColor=#ffffff;verticalAlign=top;shadow=0;dashed=0;strokeWidth=1;shape=mxgraph.ios7.misc.ipad10inch;strokeColor=#c0c0c0;" vertex="1" parent="1">
          <mxGeometry x="62.5" y="50" width="260" height="330" as="geometry" />
        </mxCell>
        <mxCell id="5acg_06QXvOivbpcsrh0-28" value="" style="endArrow=none;html=1;rounded=0;entryX=0.045;entryY=0.212;entryDx=0;entryDy=0;entryPerimeter=0;exitX=0.964;exitY=0.209;exitDx=0;exitDy=0;exitPerimeter=0;" edge="1" parent="1" source="5acg_06QXvOivbpcsrh0-27" target="5acg_06QXvOivbpcsrh0-27">
          <mxGeometry width="50" height="50" relative="1" as="geometry">
            <mxPoint x="232.5" y="280" as="sourcePoint" />
            <mxPoint x="282.5" y="230" as="targetPoint" />
          </mxGeometry>
        </mxCell>
        <mxCell id="5acg_06QXvOivbpcsrh0-29" value="" style="ellipse;whiteSpace=wrap;html=1;direction=south;strokeColor=#000000;" vertex="1" parent="1">
          <mxGeometry x="77.5" y="120" width="230" height="230" as="geometry" />
        </mxCell>
        <mxCell id="5acg_06QXvOivbpcsrh0-30" value="" style="rounded=1;whiteSpace=wrap;html=1;direction=south;" vertex="1" parent="1">
          <mxGeometry x="172.5" y="185" width="40" height="60" as="geometry" />
        </mxCell>
        <mxCell id="5acg_06QXvOivbpcsrh0-31" value="" style="endArrow=none;dashed=1;html=1;dashPattern=1 3;strokeWidth=2;rounded=1;exitX=0.5;exitY=0;exitDx=0;exitDy=0;entryX=0;entryY=0;entryDx=0;entryDy=0;fillColor=#000000;strokeColor=#C73500;curved=0;" edge="1" parent="1" source="5acg_06QXvOivbpcsrh0-30" target="5acg_06QXvOivbpcsrh0-29">
          <mxGeometry width="50" height="50" relative="1" as="geometry">
            <mxPoint x="232.5" y="210" as="sourcePoint" />
            <mxPoint x="282.5" y="160" as="targetPoint" />
          </mxGeometry>
        </mxCell>
        <mxCell id="5acg_06QXvOivbpcsrh0-32" value="" style="endArrow=none;dashed=1;html=1;dashPattern=1 3;strokeWidth=2;rounded=1;exitX=0.5;exitY=1;exitDx=0;exitDy=0;entryX=0;entryY=1;entryDx=0;entryDy=0;fillColor=#000000;strokeColor=#C73500;curved=0;" edge="1" parent="1" source="5acg_06QXvOivbpcsrh0-30" target="5acg_06QXvOivbpcsrh0-29">
          <mxGeometry width="50" height="50" relative="1" as="geometry">
            <mxPoint x="222.5" y="225" as="sourcePoint" />
            <mxPoint x="294.5" y="169" as="targetPoint" />
          </mxGeometry>
        </mxCell>
        <mxCell id="5acg_06QXvOivbpcsrh0-33" value="" style="endArrow=none;dashed=1;html=1;dashPattern=1 3;strokeWidth=2;rounded=0;" edge="1" parent="1">
          <mxGeometry width="50" height="50" relative="1" as="geometry">
            <mxPoint x="172.5" y="240" as="sourcePoint" />
            <mxPoint x="92.5" y="280" as="targetPoint" />
          </mxGeometry>
        </mxCell>
        <mxCell id="5acg_06QXvOivbpcsrh0-34" value="" style="endArrow=none;dashed=1;html=1;dashPattern=1 3;strokeWidth=2;rounded=0;entryX=0.755;entryY=0.07;entryDx=0;entryDy=0;entryPerimeter=0;" edge="1" parent="1" source="5acg_06QXvOivbpcsrh0-30" target="5acg_06QXvOivbpcsrh0-29">
          <mxGeometry width="50" height="50" relative="1" as="geometry">
            <mxPoint x="212.5" y="210" as="sourcePoint" />
            <mxPoint x="314.5" y="189" as="targetPoint" />
          </mxGeometry>
        </mxCell>
        <mxCell id="5acg_06QXvOivbpcsrh0-35" value="" style="endArrow=none;dashed=1;html=1;dashPattern=1 3;strokeWidth=2;rounded=0;exitX=1;exitY=0.5;exitDx=0;exitDy=0;entryX=1;entryY=0.5;entryDx=0;entryDy=0;" edge="1" parent="1" source="5acg_06QXvOivbpcsrh0-30" target="5acg_06QXvOivbpcsrh0-29">
          <mxGeometry width="50" height="50" relative="1" as="geometry">
            <mxPoint x="252.5" y="255" as="sourcePoint" />
            <mxPoint x="324.5" y="199" as="targetPoint" />
          </mxGeometry>
        </mxCell>
        <mxCell id="5acg_06QXvOivbpcsrh0-36" value="" style="shape=image;html=1;verticalAlign=top;verticalLabelPosition=bottom;labelBackgroundColor=#ffffff;imageAspect=0;aspect=fixed;image=https://cdn0.iconfinder.com/data/icons/phosphor-bold-vol-3-1/256/number-square-zero-duotone-128.png" vertex="1" parent="1">
          <mxGeometry x="175.5" y="198" width="34" height="34" as="geometry" />
        </mxCell>
        <mxCell id="5acg_06QXvOivbpcsrh0-37" value="Not implementing" style="strokeWidth=1;html=1;shadow=0;dashed=0;shape=mxgraph.ios.iTextInput;strokeColor=#444444;buttonText=;fontSize=8;whiteSpace=wrap;align=left;" vertex="1" parent="1">
          <mxGeometry x="162.5" y="155" width="70" height="15" as="geometry" />
        </mxCell>
        <mxCell id="5acg_06QXvOivbpcsrh0-38" value="6&lt;br style=&quot;font-size: 18px;&quot;&gt;" style="shape=xor;whiteSpace=wrap;html=1;fillColor=#e60a0a;strokeColor=#82b366;direction=east;labelBackgroundColor=#E60A0A;labelBorderColor=none;fontSize=18;verticalAlign=middle;align=center;fontFamily=Comic Sans MS;fontColor=#ffffff;spacing=4;labelPosition=center;verticalLabelPosition=middle;fontStyle=1" vertex="1" parent="1">
          <mxGeometry x="277.5" y="180" width="25" height="98" as="geometry" />
        </mxCell>
        <mxCell id="5acg_06QXvOivbpcsrh0-39" value="9&lt;br&gt;" style="shape=xor;whiteSpace=wrap;html=1;fillColor=#e60a0a;strokeColor=#82b366;direction=east;labelBackgroundColor=#E60A0A;labelBorderColor=none;fontSize=18;verticalAlign=middle;align=center;fontFamily=Comic Sans MS;fontColor=#ffffff;spacing=4;labelPosition=center;verticalLabelPosition=middle;fontStyle=1;rotation=180;" vertex="1" parent="1">
          <mxGeometry x="82.5" y="170" width="25" height="98" as="geometry" />
        </mxCell>
        <mxCell id="5acg_06QXvOivbpcsrh0-40" value="9&lt;br&gt;" style="shape=xor;whiteSpace=wrap;html=1;fillColor=#e60a0a;strokeColor=#82b366;direction=east;labelBackgroundColor=#E60A0A;labelBorderColor=none;fontSize=18;verticalAlign=middle;align=center;fontFamily=Comic Sans MS;fontColor=#ffffff;spacing=4;labelPosition=center;verticalLabelPosition=middle;fontStyle=1;rotation=124;" vertex="1" parent="1">
          <mxGeometry x="132.5" y="270" width="25" height="98" as="geometry" />
        </mxCell>
        <mxCell id="5acg_06QXvOivbpcsrh0-41" value="6&lt;br style=&quot;font-size: 18px;&quot;&gt;" style="shape=xor;whiteSpace=wrap;html=1;fillColor=#e60a0a;strokeColor=#82b366;direction=east;labelBackgroundColor=#E60A0A;labelBorderColor=none;fontSize=18;verticalAlign=middle;align=center;fontFamily=Comic Sans MS;fontColor=#ffffff;spacing=4;labelPosition=center;verticalLabelPosition=middle;fontStyle=1;rotation=59;" vertex="1" parent="1">
          <mxGeometry x="232.5" y="270" width="25" height="98" as="geometry" />
        </mxCell>
        <mxCell id="5acg_06QXvOivbpcsrh0-46" value="" style="shape=image;verticalLabelPosition=bottom;labelBackgroundColor=default;verticalAlign=top;aspect=fixed;imageAspect=0;image=data:image/jpeg,/9j/4AAQSkZJRgABAQAAAQABAAD/2wBDAAYEBQYFBAYGBQYHBwYIChAKCgkJChQODwwQFxQYGBcUFhYaHSUfGhsjHBYWICwgIyYnKSopGR8tMC0oMCUoKSj/2wBDAQcHBwoIChMKChMoGhYaKCgoKCgoKCgoKCgoKCgoKCgoKCgoKCgoKCgoKCgoKCgoKCgoKCgoKCgoKCgoKCgoKCj/wgARCAPUA4wDASIAAhEBAxEB/8QAGwABAQEBAQEBAQAAAAAAAAAAAAYFBAMCAQf/xAAYAQEBAQEBAAAAAAAAAAAAAAAAAQIDBP/aAAwDAQACEAMQAAACqgAAAAAAAAAAAAAAAAAAAAAAAAAAAAAAAAAAAAAAAAAAAAAAAAAAAAAAAAAAAAAAAAAAAAAAAAAAAAAAAAAAAAAAAAAAAAAAAAAAAAAAAAAAAAAAAAAAAAAAAAAAAAAAAAAAAAAAAAAAAAAAAAAAAAAAAAAAAAAAAAAAAAAAAAAAAAAAAAAAAAAAH5lmqkPIr/OZ9ShT4oE+KBPigT4oE+KBPigT4oE+KBPigT4oE+KBPigT4oE+KBPigT4oE+KBPigT4oE+KBPigT4oE+KBPigT4oE+KBPik9ZHzLJFaRRuXqAAAAAAAAAAAAAAAAAAAAAAB8n1k5HscGnQfZ4e4AAAAAAAAAAAAAAAAAAAAAAAAAAAAAfmbpiQ9KvgOj3iaM0wAAAAAAAAAAAAAAAAAAAD4PyQ/KY8tMAAAAAAAAAAAAAAAAAAAAAAAAAAAAAAAAAPiVrRhbsppGyAAAAAAAAAAAAAAAAAABJaPid2oAAAAAAAAAAAAAAAAAAAAAAAAAAAAAAAAAAAH5IWHkcejE2Z9gAAAAAAAAAAAAAAAAeXrLHHaZ+iAAAAAAAAAAAAAAAAAAAAAAAAAAAAAAAAAAAAAZeXURxYufoAAAAAAAAAAAAAAAAPGT0Ow1gAAAAAAAAAAAAAAAAAAAAAAAAAAAAAAAAAAAAAODvErVRlgfYAAAAAAAAAAAAAAByEraS1UAAAAAAAAAAAAAAAAAAAAAAAAAAAAAAAAAAAAAAAYf1qyZYgAAAAAAAAAAAAAAT9BHG5q/H2AAAAAAAAAAAAAAAAAAAAAAAAAAAAAAAAAAAfkxoZsnOoGU+oPw8dmHtdPuMs5m2l/eHuAAAAAAAAAAAAAAEXZSBYg+fCU9JKdMCn9pLlLp4+1oAAAAAAAAAAAAAAAAAAAAAAAAAAAAAAEv35upme4xkDD3MbX3rSydbj1c3emKcAAAAAAAAAAAAAA5p7cyCl4e7JMfeydbnkJGZp8i/m5NUvXQAAAAAD8/cE2UP6lmjBZowWf7F8p/Qnn6AAAAAAEp4eFAYzZJjNkYzZ8j63JSrUAAAAAAACU1MvUxPc+c5+gY2vka+9aXn6NWQr4yzAAAAAAAAAAAAAAM3g7eQ38jXyDh1crV55CRydfIvJTTNN10AAAAAAn6CfPDu4elPV4/h7uTqP3B3sEsvXy9VAAAAAAhqCfoEM/wBzpcPodXl6+RxVcpVqAAAAAAABKamXqYnB57WMmyMzG18jX3rSGrGWcZZgAAAAAAAAAAAAAGXydfIb+Rr5Bw6Odpc85Oly+51cnXyRyU0zTddAAAAAAJ+gnzw+vn1Tk9Ogfvn8dZ94O9gll6+XqoAAAAAENQT9AnB5aP4cX37ep9+Xr5HFVylWoAAAAAAAEpqZepie+Ns58mgJMbXyNfetIasZZxlmAAAAAAAAAAAAAAZfJ18hv5GvkHDq5Wrzzwevl6nVydfJHJTTNN10AAAAAAn6CfPDu4e5AAGDvYJZevl6qAAAAABDUE30G4wybjDG55ZHydlXKVagAAAAAAASmpl6mJ7jOQMbXyNfetIasZZxlmAAAAAAAAAAAAAAZfJ18hv5GvkHDq5WrzyEjk6+ReSmmabroAAAAABl6gjFmIxZiMWYjFmPn6AAAAAADy+fceD3Hg9x4PcfH2AAAAAAAAErpeHzmaIxkDF2Zyt6a9xbGWcZZgAAAAAAAAAAAAAGXydfIb+Rr5hm6uNs88hI5OvhXnpp2i66AAAAAAAAAAAAAAAAAAAAAAAAAAAAAAA8Yy5RELckQtxJ1haBGWcZZgAAAAAAAAAAAAAGXydfIb/n6CHoPvLzNJmo0sTp7K7dA1QAAAAAAAAAAAAAAAAAAAAAAAAAAAAAAAAAAAIyzjLMAAAAAAAAAAAAAAy+Tr5DfAAAAAAAAAAAAAAAAAAAAAAAAAAAAAAAAAAAB5zn3+yc7VZZX7qfJ2dkXaboEZZxlmAAAAAAAAAAAAAAZfJ18hvnMT3H90eZMqZJM/VJlLRfeJt7oAAAAAAAAAAAAAAAAAAAAAAAAAAAAAAEZRTtHjIZgExaxtf016i2Ms4yzAAAAAAAAAAAAAAMvk6+Q38vUyzL2MjX55CRy9XMvDTy1T10AAAAAAAAAAAAAAAAAAAAAAAAAAAAAABGUc5uYz7sf0jUEk5XSNd016i2Ms4yzAAAAAAAAAAAAAAMvk6+Q38vUyzM18jW55/XJ0SffN08y59TLVPXQAAAAAABFfpaIsWiLFoixaIsWiLFoixaIsWiLFoixaIsWiLFoixaIsWiLFoiaw6gAAAAAAARm1i0eM/OP7+8dgknK6RrumvUWxlnGWYAAAAAAAAAAAAABl8nXyG/l6mWZn38a/PPFw6nBWtzdPNln1MtU9dAAAAAAARdpF2gAAAAAAAAAAAAABN6mXqGgAAAAAAACM1smjxJzu1Un5+kk5XSNd016i2Ms4yzAAAAAAAAAAAAAAMvk6+Q38vUyzM0s3r554dnK+q1Obp5ss+plqnroAAAAAACLtIu0AAAGbpZh98ntyJ1d/N6rx/vx9J78v34nv6+H0awUAAACb1MvUNAAAAAAAAEZRzlHjIZgE5XSNd016i2Ms4yzAAAAAAAAAAAAAAMvk6+Q38vUyzM18jX55CRzdPMufUy1T10AAAAAABF2kF1lkjRZI0WSNFl8x4sfyPFZ7RosPyQFZ6R4sfmQFkjRZI0WSNFkjRZI0d2pKVx2gAAAAAAAi6TB2MT2GcgTVjF3HTQWxlnGWYAAAAAAAAAAAAABl8nXyG/m6XkTW1MU/PISOTrxbfWlyNfpoAAAAAAAAAAAAAAAAAAAAAAAAAAAAAADOlrrzkkFYJP4r/0wqMtAjLOMswAAAAAAAAAAAAADL5OvkN8GDkWoilqIrqqx+foAAAAAAAAAAAAAAAAAAAAAAAAAAAAAAAAAAAARlnGWYAAAAAAAAAAAAABl8nXyG+AAAAAAAAAAAAAAAAAAAAAAAAAAAAAAAAAAAAAAAACMs4yzAAAAAAAAAAAAAAMvk6+Q3wAAAAAAAAAAAAAAAAAAAAAAAAAAAAAAAAAAAAAAAARlnGWYAAAAAAAAAAAAABl8nXyG+AAAAAAAAAAAAAAAAAAAAAAAAAAAAAAAAAAAAAAAACMs4yzAAAAAAAAAAAAAAMvk6+Q3wAAAAAAAAAAAAAAAAAAAAAAAAAAAAAAAAAAAAAAAARlnGWYAAAAAAAAAAAAABl8nXyG+Z5wcPnu5mM2UY2n7TtWzw99UAAAAAAAAAAAAAAAAAAAAAAAAAAAAAAAAAAACMs4yzAAAAAAAAAAAAAAMvk6+Q35+gmz17+Lt5ZBGRr5dvbr4m300AAAAAAAAAAAAAAAAAAAAAAAAAAAAAABkTvpSZk0pkkz8VPmfejG2W9ARlnGWYAAAAAAAAAAAAABl8nXyG/N0k2e/bxdnLP64OxPvL1Mu3p28Tb6aAAAAAAAAAAAAAAAAAAAAAAAAAAAAAAAiKeZpsZDMAmbaIt+mgtjLOMswAAAAAAAAAAAAADL5OvkN+bpJs9/Xy7eecPW4e49svUyzp28Tb6aAAAAAAM/gN9O9BtPH2AAAAADinCv8I/1lrvWK+C4T+9Z9AAAAHmejD4CrSPUUji7QAAAACJppmmxkzeSN0STFvEW/TQWxlnGWYAAAAAAAAAAAAABl8nXyG/N0k2e/bxdvLOX3fv3X1l6mWdO3ibfTQAAAA4z8lvihmsjt72evHz6gm9LSzLil/ZGu1zAAAY3bKR+7nt+57hK/P0ZnBRcdxt+kjXb5AADIPye9aDO83t9k6efP2JcD02+HXPe+42x1z/QAAARNNM02MsbZxo2RJMW8Rb9NBbGWcZZgAAAAAAAAAAAAAGXydfIb83STZ79vF28sgjL1Mu3p28Tb6aAAAARdTMS7Xq5sd+lzfZ7PDyrscvVGJs/ONrlYDWAAJTQxKPPQM9Dg9LOtnep2CWeq8Hu3x2RcgfkPT4suv8ARjuc3jZ3uX4O0S4+l94uuVgNYAAAiaaZpsZZmmzAJi3iLfpoLYyzjLMAAAAAAAAAAAAAAy+Tr5DfnKPHPLtyNfnkJGXqYNurs8Hf00AAABl5O5PTW5n6HHnr4/HSueZ0/R+dHL2TX7O0GFcWQ1zAAiaPE1M9PcZ6Z/t7/tnD9dX2folzOzGqN8esXIGLx6mJNbQx24fHvXPN++3wdQmk9vYmudiNcwAAImmmabGQzAJi3iLfpoLYyzjLMAAAAAAAAAAAAAAy+Tr5Df8Aj7EN6WnnJHrAR/1Xeh+i0AAAD8h7nJP36nqDHf8ARKAOU5OvGtd8P0WAAcExbYMdaf3c9/sSgObyyLn2svH23xAA/Ii4yY/fqeoM9/0SgDgOXUxbLfALAAAIinnd3GfUZg5jDtZGu6bCoyzjLMAAAAAAAAAAAAAAy+Tr5DfAAAAAAAAABjT9z5Rgd3Nnze34ZHSvl5UGnceXqWAAAAZc7bCK6Kflmp/nq+xJij9VgAAAGRO3PxE32/nBN6Phx9Jn+1D2XPx9lgAAAHDM2gilqIr7shzdIARlnGWYAAAAAAAAAAAAABl8nXyG+AAAAAAAAAAAAAAAAAAAAAAAAAAAAAAAAAAAAAAAACMs4yzAAAAAAAAAAAAAAMvk6+Q3/wA/con/AJ7tnEmFOkmPSjwraz9z9DdAAAAAAAAAAAAAAAAAAAAAAAAAAAAAAAcnhNSU7DRufuF8lZ9SVbqgRlnGWYAAAAAAAAAAAAABl8nXyG/P0E6fffw93LIIzNPNt99vC3emgAAAAAAAAAAAAAAAAAAAAAAAAAAAAAAJPVw6PEDOQJi1kKjprpFsZZxlmAAAAAAAAAAAAAAZfJ18hvztFOnp3cPbyz+uD1OrN0s2vXdwt3poAAAAAAAAAAAAAAAAAAAAAAAAAAAAAACNop2ixk8uPLRfH2k/TzFP010i2Ms4yzAAAAAAAAAAAAAAMvk6+Q352inT0+vnu554uDXzK2M3SzY9d3C3emgAAAAAAAAAAAAAAAAAAAAAAAAAAAAAAI2inaLGcnv98yPLY5Osn6eYp93pFsZZxlmAAAAAAAAAAAAAAZfJ18hvztFOnp18nRzzkbPCrRzu/gj13cLd6aAAAAAAAAAAAAAAAAAAAAAAAAAAAAAAAjaKdosZ4PL38jQ+uLtzJ+nmKfprpFsZZxlmAAAAAAAAAAAAAAZfJ18hvztFOnp3cPdyyCM3SzbfXdwt3poAAAAAAAAAAAAAAAAAAAAAAAAAAAAAACNop2ixkMwCfp5in6a6RbGWcZZgAAAAAAAAAAAAAGXydfIb+DvcJmaM/Qc8hIy9Sbt29nl6umgAAAAAAAAAAAAAAAAAAAAAAAAAAAAAAIyjwNvE9BnIE9USdj016C2Ms4yzAAAAAAAAAAAAAAMvk6+Q3wTnBZCNWQjdKgAAAAAAAAAAAAAAAAAAAAAAAAAAAAAAAAGHn1eHIeSPX88xl23N06oEZZxlmAAAAAAAAAAAAAAZnH28BQgAAAAAAAAAAAAAAAAAAAAAAAAAAAAAAAAAAAAAAAAjLOMswAAAAAAAAAAAAADixqGWK4AAAAAAAAAAAAAAAAAAAAAAAAAAAAAAAAAAAAAAAD8/fEk7KRrgAAAAAAAAAAAAABGWcWWgAAAAAAAAAAAAAAAAAAAAAAAAAAAAAAAAAAAAAAAGdo4R40eRrgAAAAAAAAAAAAACWqcY7uvE2wAAfB9uD8NBnjQZ40HB1noAAYB56k/ys3Lm6WgADiyCkTIpkyKZMimYm0foABjnppRHUle/P1QAB4ns8B7vAe7wHu/P0AAYnphJS98NYHSFAAASlXFFX1AAAAAAAAAAAAAAA8vUR1jHVh6gA5o/X6cXO/d9x3gN8YDfE/w13HqdPbMU/fA4DwwvOkvP98fZvjM2eRj472j5+ptzdOST1Bx7Pn3yupjXK6hyuoYf7tyvbFoOuRynjMfNJef1lazfLLppDS5990NPP0xjE++/Y46mlKzZpSiaUokar5wuua0bjP8AaQT6pPn73w8Z/cLr+sXZY7fQUADjwvTTNIAAAAAAAAAAAAAAAGP4b0UWz5+gCb7OPs5a7hw3+YWhl9c6vbka+K5erllyqmWpfXy8o/8AaC4+/s3w8M4z02M/Qa54dbMffP0UuRr5DXHs42x5unB55mprOmOWwErVSvbFofPbPxGfezcens8d8OD08PbPTSnaL8uPnViKnHo7sTbxF+NTL1PL0/Mn9+dTR9/L1xoI+Zukm+2LDy+4ztj4oPPq3xZvbwpzbmPsHBw7uVNU37M02ewD5+sQxbXC3QAAAAAAAAAAAAAAABi7X4YO/GVR0gm+zj7OWu4cN5/12YvTLbx9mVy9XLm5VPMVPr5RW1qxtxTZvb6744vhQZed6f0y9Y8O7mqOfdka+Q1x6mXs+bph9HG3nV6/L15bCErVSvbFpx9jtmGpvLFvOgxNtvlj+exzTXacFxze/HXc/R+4m3iNfGpl6nl6YWj4fG5z72HuZBjXzN0k32xXRlr49sZPVM0O+Phz6hmd3/HpVle3DNdFP+fuewHxGaPean0AAAAAAAAAAAAAAAAAHLL2WIbX7K1RN9n3i87Sub94dOhzjoc46OX9xtT0qMbZ9PNydYhqX7mbzpTl3x88/wArPHo/f0mmTrfBO7cl3cN7/wCYbN3WEN1hDcl/nd642B0ieoRJ7WP6646Z465+eP52eO/39E2xNvOOLUmKTzdPvw9Wb+/vyj6fITff598Uo655ZC5z08/qapN8P3l9J9fuz+PXHYFZvTJHRXfH2AAAAAAAAAAAAAAAAAAAT3nSz5QZONWE1+VIllSJZUiX0NgAAMbZEV8buiz6+o0AB88OgM1pDNaQzWkOfoAAD8j7H4J/J9Ka49ukmwAMbIsBGrIRqyEb+2Im6L6AAGPh2mEmHX+XeArl8Js/Kz66AAAAAAAAAAAAAAAAAAAAADNmrf4MrYncwtU3rHc8/QAAAAAAAAAAAAAAAAAAAAAAAAAAAHMdLIyCpm+egMam9AAAAAAAAAAAAAAAAAAAAAAAA/P0ZuXTCR87IRqyEashGrIRqyEashGrIRqyEashGrIRqyEashGrIRqyEashGrIRqyEashGrIRqyEashGrIRqyEashGrIRqyEashGrIRnTVDC1OkAAAAAAAAAAAAAAAAAAAAAAAAAAAAAAAAAAAAAAAAAAAAAAAAAAAAAAAAAAAAAAAAAAAAAAf/2gAMAwEAAgADAAAAIQAAAAAAAAAAAAAAAAAAAAAAAAAAAAAAAAAAAAAAAAAAAAAAAAAAAAAAAAAAAAAAAAAAAAAAAAAAAAAAAAAAAAAAAAAAAAAAAAAAAAAAAAAAAAAAAAAAAAAAAAAAAAAAAAAAAAAAAAAAAAAAAAAAAAAAAAAAAAAAAAAAAAAAAAAAAAAAAAAAAAAADDNDDDDDDDDDDDDDDDDDDDDDDDDDDDKCAAAAAAAAAAAAAAAAAAAAAAAAEGIAAAAAAAAAAAAAAAAAAAAAAAAAAAAAAELAAAAAAAAAAAAAAAAAAAABEIAAAAAAAAAAAAAAAAAAAAAAAAAAAAAAAAAAIAAAAAAAAAAAAAAAAAAACIAAAAAAAAAAAAAAAAAAAAAAAAAAAAAAAAAAAJIAAAAAAAAAAAAAAAAAAOAAAAAAAAAAAAAAAAAAAAAAAAAAAAAAAAAAAAAECAAAAAAAAAAAAAAAALAAAAAAAAAAAAAAAAAAAAAAAAAAAAAAAAAAAAAAAKAAAAAAAAAAAAAAABGAAAAAAAAAAAAAAAAAAAAAAAAAAAAAAAAAAAAAAAGAAAAAAAAAAAAAAAFIAAAAAAAAAAAAAAAAAAAAAAAAAAAAAAAAAAAOctpwAAAAAAAAAAAAAAAEAJzTSAAAAAAAAAAAAAAAAAAAAAAAAAAAAAAAIAQWwKAAAAAAAAAAAAAAGEAAQoAAAAAAEOMMNCAAAAAAGMcdQAAAAAAAAAhQagKAAAAAAAAAAAAAAKFAAVgAAAAAAFLRQVaAAAAAAKSTVQAAAAAAAAAkAagKAAAAAAAAAAAAAAKFFJlgAAAAAAFKSyVaAAAAAAKRcVQAAAAAAAAAhAagKAAAAAAAAAAAAAAKFAFlgAAAAAAFKQQVaAAAAAAIAQUSAAAAAAAAAgQagKAAAAAAAAAAAAAAKFAAVgAAAAAAAMMMMAAAAAAAMMMMIAAAAAAAAMAQSQKAAAAAAAAAAAAAAKEAAUiAAAAAAAAAAAAAAAAAAAAAAAAAAAAAAAIsYYAKAAAAAAAAAAAAAAKAPjnoAAAAAAAAAAAAAAAAAAAAAAAAAAAAAAAAAAAAKAAAAAAAAAAAAAAKAAAAAAAAAAAAAAAAAAAAAAAAAAAAAAAAAAAAPTigAKAAAAAAAAAAAAAAKBKMZgAAAAAAAAAAAAAAAAAAAAAAAAAAAAAAAEwQfQKAAAAAAAAAAAAAAKEAAQqAAAAAAAAAAAAAAAAAAAAAAAAAAAAAAAAzgVQKAAAAAAAAAAAAAAKABAwqAAAAAAACAAAAAAAAAAAAAABAAAAAAAAA6gVQKAAAAAAAAAAAAAAKAExAqAAAAAAAAAAAAAAAAAAAAAAFAAAAAAAAEogVQKAAAAAAAAAAAAAAKAEnAqAAAAAAAAAAAFJZOceQAAAAFAAAAAAAAAQQVQKAAAAAAAAAAAAAAKAAAQqAAAAAAADDDDDLDHLHDDDDDHAAAAAAAABgQeQKAAAAAAAAAAAAAAKAKwVCAAAAAAAAAAAAAAAAAAAAAAAAAAAAAAABzXQAKAAAAAAAAAAAAAAKAMMIIAAAAAAAAAAAAAAAAAAAAAAAAAAAAAAAAAAAAKAAAAAAAAAAAAAAKAAAAAAAAAAAAAAAAAAAAAAAAAAAAAAAAAAAAAAAAAKAAAAAAAAAAAAAAKAAAAAAAAAAAAAAAAAAAAAAAAAAAAAAAAAAAAAAAAAKAAAAAAAAAAAAAAKAAAAAAAAAAAAAAAAAAAAAAAAAAAAAAAAAAAAAAAAAKAAAAAAAAAAAAAAKAAAAAAAAAAAAAAAAAAAAAAAAAAAAAAAAAAAAAAAAAKAAAAAAAAAAAAAAKBBDkiAAAAAAAAAAAAAAAAAAAAAAAAAAAAAAAAAAAAKAAAAAAAAAAAAAAKFCgVIAAAAAAAAAAAAAAAAAAAAAAAAAAAAAAAMsdSAKAAAAAAAAAAAAAAKAKj1AAAAAAAAAAAAAAAAAAAAAAAAAAAAAAAAAQQawKAAAAAAAAAAAAAAKAOPlAAAAAAACBCAAAAABG5hAAAAAACAAAAAAATgawKAAAAAAAAAAAAAAKAKtFAAAAAAHQEYIAAAG+A00yAABH4QkZAAAAAQgawKAAAAAAAAAAAAAAKAKgVAAAAAChjjAggAAAQyQAzAAA4xQQ4gAAAAQwawKAAAAAAAAAAAAAAKECARCAAAAKBcXZWQAADQ+KA/AAPQ97wxQAAAAQQawKAAAAAAAAAAAAAAKAJzTwAAAAMDQww4wAAMwQwxoAAAoAwxqgAAAJQRSgKAAAAAAAAAAAAAAKAAAAAAAAAAE56mgAAAAMJK0AAAAA6pyoAAAAMMIAAKAAAAAAAAAAAAAAKAAAAAAAAAAAAAAAAAAAAAAAAAAAAAAAAAAAAAAAAAKAAAAAAAAAAAAAAKAMs1oAAAAAAAAAAAAAAAAAAAAAAAAAAAAAAAC846AKAAAAAAAAAAAAAAKFAgVAAAAAAAAAAAAAAAAAAAAAAAAAAAAAAAAKgQbQKAAAAAAAAAAAAAAKFBhlAAAAAAAAAAAAAAAAAAAAAAAAAAAAAAAAAwgaQKAAAAAAAAAAAAAAKFEIFAAAAAAAAAAAAAAAAAAAAAAAAAAAAAAAAA5iKQKAAAAAAAAAAAAAAKFBIPAAAAAAAAAAAAAAAAAAAAAAAAAAAAAAAAA8A6QKAAAAAAAAAAAAAAKFAgVAAAAAAAAAAAAAAAAAAAAAAAAAAAAAAAAAwQaQKAAAAAAAAAAAAAAKFIAQAAAAAAAAAAAAAAAAAAAAAAAAAAAAAAAAJgQaQKAAAAAAAAAAAAAAKAMMMAAAAAAAAAAAAAAAAAAAAAAAAAAAAAAAAD/ACyACgAAAAAAAAAAAAAAgAAAAAAAAAAAAAAAAAAAAAAAAAAAAAAAAAAAAAAAACgAAAAAAAAAAAAABQAAAAAAAAAAAAAAAAAAAAAAAAAAAAAAAAAAAAAAABQgAAAAAAAAAAAAABQAAAAAAAAAAAAAAAAAAAAAAAAAAAAAAAAAAAAAAABQgAAAAAAAAAAAAAACAAAQQwwQAADcAAAAAAAwAAQwgAAQwwwgAAYkAAABCAAAAAAAAAAAAAAACgABKIIKSAAK6EABPLKLIAR/wsBDkEEEEB1pkEAACQAAAAAAAAAAAAAAACwABYNgNahhoL19QBsMMEA3nauACn+gP82zL9qgBSgAAAAAAAAAAAAAAABQQBYPFpagmCphNRBYIMEBK3Hn8ClQMP8Alwvu6oAEAAAAAAAAAAAAAAAAAAAozEMMcAQv1QgQuQAAJAA/6JAAqcOK6ARewhAMAAAAAAAAAAAAAAAAAAAAEQQwwQAAQjAAAAAAAgAAgxAAAQwwggAAWxAIYAAAAAAAAAAAAAAAAAAAAAUAIAAAAAAAAAAAAAAAAAAAAAAAAAAAAAMcQAAAAAAAAAAAAAAAAAAAAAAAQwAwwwwwwwwwwwwwwwwwwwwwwwwwwwggAAAAAAAAAAAAAAAAAAAAAAAAAAAAAAAAAAAAAAAAAAAAAAAAAAAAAAAAAAAAAAAAAAAAAA//2gAMAwEAAgADAAAAEPPPPPPPPPPPPPPPPPPPPPPPPPPPPPPPPPPPPPPPPPPPPPPPPPPPPPPPPPPPPPPPPPPPPPPPPPPPPPPPPPPPPPPPPPPPPPPPPPPPPPPPPPPPPPPPPPPPPPPPPPPPPPPPPPPPPPPPPPPPPPPPPPPPPPPPPPPPPPPPPPPPPPPPPPPPPPPPPPPPPPPPPMOPPPPPPPPPPPPPPPPPPPPPPPPPPOOMPPPPPPPPPPPPPPPPPPPPPPPOIHHPPPPPPPPPPPPPPPPPPPPPPPPPPPPPHCHPPPPPPPPPPPPPPPPPPPPPAHPPPPPPPPPPPPPPPPPPPPPPPPPPPPPPPPPLNPPPPPPPPPPPPPPPPPPPNPPPPPPPPPPPPPPPPPPPPPPPPPPPPPPPPPPPPHNPPPPPPPPPPPPPPPPPOLPPPPPPPPPPPPPPPPPPPPPPPPPPPPPPPPPPPPPDPPPPPPPPPPPPPPPPPNPPPPPPPPPPPPPPPPPPPPPPPPPPPPPPPPPPPPPPPMPPPPPPPPPPPPPPPONPPPPPPPPPPPPPPPPPPPPPPPPPPPPPPPPPPPPPPPKPPPPPPPPPPPPPPPLHPPPPPPPPPPPPPPPPPPPPPPPPPPPPPPPPPPPBzns/PPPPPPPPPPPPPPPOOMcJ/PPPPPPPPPPPPPPPPPPPPPPPPPPPPPPPCAw9qNPPPPPPPPPPPPPPGKCwxtPPPPPPOMMMMPPPPPPPIAww/PPPPPPPPKhw1bNPPPPPPPPPPPPPPKPAQwFPPPPPPPKyxw/PPPPPPAxww/PPPPPPPPKpw1fFPPPPPPPPPPPPPPKPA4wFPPPPPPPL7Kw/PPPPPPA26g/PPPPPPPPKkg1fFPPPPPPPPPPPPPPKPAQQFPPPPPPPKwww/PPPPPPAgwx/PPPPPPPPKgw1fFPPPPPPPPPPPPPPKPAQwFPPPPPPLHPPLHPPPPPPDDDDHPPPPPPPPDAw5PFPPPPPPPPPPPPPPKOAwwnPPPPPPPPPPPPPPPPPPPPPPPPPPPPPPPPjz3PFPPPPPPPPPPPPPPKLPzjXPPPPPPPPPPPPPPPPPPPPPPPPPPPPPPPPPPPPFPPPPPPPPPPPPPPKPPPPPPPPPPPPPPPPPPPPPPPPPPPPPPPPPPPPKvrnPFPPPPPPPPPPPPPPKOAAEHPPPPPPPPPPPPPPPPPPPPPPPPPPPPPPPIQw/wDxTzzzzzzzzzzzzzyigsNRzzzzzzzzzzzzzzzzzzzzzzzzzzzzzzzwEANTxTzzzzzzzzzzzzzyiislTzzzzzzzzTzzzzzzzzzzzzzzjzzzzzzzwEcNTxTzzzzzzzzzzzzzyiiqVTzzzzzzzzzzzzzzzzzzzzzzyjzzzzzzzxLONTxTzzzzzzzzzzzzzyii2FTzzzzzzzzzzzzzNpt9fzzzzyjzzzzzzzwMMNTxTzzzzzzzzzzzzzyiisNTzzzzzzzzDDDCDDBDDDDDDDCDzzzzzzzywMPfxTzzzzzzzzzzzzzyiigMBzzzzzzzzzzzzzzzzzzzzzzzzzzzzzzzzsBJzxTzzzzzzzzzzzzzyjxzyxzzzzzzzzzzzzzzzzzzzzzzzzzzzzzzzzzzzzxTzzzzzzzzzzzzzyjzzzzzzzzzzzzzzzzzzzzzzzzzzzzzzzzzzzzzzzzxTzzzzzzzzzzzzzyjzzzzzzzzzzzzzzzzzzzzzzzzzzzzzzzzzzzzzzzzxTzzzzzzzzzzzzzyjzzzzzzzzzzzzzzzzzzzzzzzzzzzzzzzzzzzzzzzzxTzzzzzzzzzzzzzyjzzzzzzzzzzzzzzzzzzzzzzzzzzzzzzzzzzzzzzzzxTzzzzzzzzzzzzzyjysInTzzzzzzzzzzzzzzzzzzzzzzzzzzzzzzzzzzzxTzzzzzzzzzzzzzyjgoNXzzzzzzzzzzzzzzzzzzzzzzzzzzzzzzzxEBPzxTzzzzzzzzzzzzzyjy4NTzzzzzzzzzzzzzzzzzzzzzzzzzzzzzzzyAMN/wAU88888888888888o8oXU888888844888888wAU088888w8088888AMD98U88888888888888o8qUU888884hyATU888ySBRiU884aBT1U8888ABD98U88888888888888o8qDU88888kDPIL38886BIHBD88MBABBT8888ATD98U88888888888888o8IDH88888VCIkGD888GB/WBJ88ABI9BG8888ADD98U88888888888888os9+9c8888toBBCo8887OBBOU88PHBBHx8888HDH+8U88888888888888o8888888888+AMFc8888tmE88888qnhm88888s88c8U88888888888888o88888888888888888888888888888888888888888U88888888888888o8iCy08888888888888888888888888888888/CG88U88888888888888ooiDAU8888888888888888888888888888888SDDm8U88888888888888ooCGAU8888888888888888888888888888888BCLU8U88888888888888ooAjAU8888888888888888888888888888888BxIU8U88888888888888ooAtgU8888888888888888888888888888888BVBU8U88888888888888ooCDAU8888888888888888888888888888888BDDU8U88888888888888o8LDD88888888888888888888888888888888sDD48U88888888888888o8sMc88888888888888888888888888888888twn88U88888888888888E88888888888888888888888888888888888888888U88888888888888g8888888888888888888888888888888888888888s888888888888888s88888888888888888888888888888888888888888088888888888888s08884ww8888W088wwwww884n8884www088gy8888s8888888888888888Y88Zc885c8ON00okMMM984ocd8sl99tw8qmsx888o8888888888888888E08885Uo8ad2/S8Vb88p4WbmLX8+MW8V5Wh1b88oU88888888888888888c888pkosG1bUt8Tf88psW8k/wBvPsV/Ffev/ZnPNPPPPPPPPPPPPPPPPPPPNHOssrVLJtiPKGnv/wC/zzDmxzziHPdnwpa63zzTzzzzzzzzzzzzzzzzzzwijzzwzzzyVzzxzzzzzzxwlzzzwwxyzzzx7zATzzzzzzzzzzzzzzzzzzzzxizjTzzzzzzzzzzzzzzzzzzzzzzzzzzzjQizzzzzzzzzzzzzzzzzzzzzzzywzwwwwwwwwwwwwwwwwwwwwwwwwwwwywzzzzzzzzzzzzzzzzzzzzzzzzzzzzzzzzzzzzzzzzzzzzzzzzzzzzzzzzzzzzzzzzzzzzzzz//EADkRAAEDAQUFBQYFBAMAAAAAAAEAAgMRBBASMTIhQEFQURMUICJhBTAzUnGhFYGxwdEjQmBwgJCR/9oACAECAQE/AP8Apme8MFSu8+i7z6IGoqNzc9rcyu2Z1TZGuNAeQ2jIXw6Bucxq83RmjhutFRU91achfBo3OXWbmahyG05BB+JjhS6DRuclMZqn4SyrRxTNQ5DacgmEBrhdBo3OXWUfhD6pmochtOQvg0bnLrNzNQ5DaB5a3wijBucus3M1DkJFdhXZt6Ls29N0fCHmq7uOqZCGmv8AjUjwwVK7yOi7wOiz3OWYtNAu8OTJyXUPIbTwvj0Dc5dZubqHIZwSQAjERxui0Dc5dZRaRmE3MchnJaQQm+RuI5m6LQNzc7DISmuOFxdkm5jkM5AcCU6RrjUt+90Wgbm8AyebJPwu/u2fRNzHIbTmL4tA3OXWbm5jkNpGRvYKNA3OcUfdGMTgOQkB2wrsmdF2TOn/AAxfMGmlF3kdEyYPNObv1G6LWOQyylmS7w5C0Ort3R+oosIFSFHrHIbRqvbkNzcSHkhPJMYJUesbiXtHFBwOR9/aNSERIrW5uQ3N+oouBYGqPWPG+TDsCL3Hig9w4pkvB3hJoKlOeXXskI2HwvkpsCLic0CRkmS8HeK0alF/d9Lm5Dc36jdHrHiccIqgC4otIWE5IgjNROqKeCY5C7Ci2l0Zq295witwaSsJuidUU8No1Jri2tONzchucgo43RCrx4pNKYdqxCu1YgaI7BRQ8fBMMjcXA7eKLhtPW6MUbfLpua4CiBGw3QjM+G0ar25DcyxrtpC7NnRBjW5DxEVTmlpvArsCY3CKeBwDhQpzC3O9kZO0+AiuxOaWm8Ak0Ca3CKeG0DaDcBU0CAoKb4QDmjCOCEPqmtDcvGY2nggxo4eIgHNGEcEIQg0Ny/xWSYtdQLvDlHMXOoeQucGipXbM6rtmdd0fqN0eochtJyF8Rqwbm/UUY3AVIUeochtPBBjnbQFkodA3NxwvJ9VG47XuyUeochtPBAueQBwUrg55IUOgbm6mM16p5Y7ZXYo9Y5DaeCDmBuGqcADsUOgbm/Ubo9Q5DaeF8OgbnK2jjdC2rxyG08L4hRg5s9geKFd3b1Xd2/7JMbgMR94WkbT7trS40CIINDvNsnMEeJua7/P832C7/P8AN9h/C7/P832H8KC3y4wHmoN8MVfMURXYVJHgPpfbbRJ2paDQBdq/5iu1f8xXav8AmP8A6vZ0z5AWuNaXxR4tpyTmhwoU9paaG+1W97JCxnBfiE/VfiE/VfiE/VWO0mdpxDaLgCTQKNgYFIwSCrc959p/CH1uskVIzKKVyFch6q0tkD6ycVFrb9boo8Zqclki4lwPBOaHChT2FhobrZ8dyks7om4GR12bT/F/srN35fvdHHjPotjQm1LwSnsDxREFpobrV8Z31UFnAj7QtLich+5Umo1FPS72Vk78v3uijwCpzTzXyhRZKaKvmG8e0/hD63RFssJiJoQa7VaXNDGRA1Ir91Frb9bo5MB9ERiGxOa4UFU5waKlPeXmputZpaHH1TmPfaBO0+Xr6cQpSHPcW5Vu9lZu/L97oZKeUp7cQosLsQ2pzg0VKe8vNbrV8Z31X9SSzsEXCtafZW4+cA50Ffrd7Kyd+X73RSYxQ5oxtJqVGzCppaeUbxb4nSR+UVoV2b+hXZv6Fdm/oVZ4JHyCgvikw7DkiQBUqSQvN9rsUjpC9gqCu4z/AC/ou4z/AC/ou4z/AC/orDZnQAl+Zvhlr5SiabSpJMZ9L7ZE5kriRsKaXNyVCqFezYnMaXOGdwJBqFG8PClkwCgz5CXkinvHSFwofdtcWmoRJJqf9c//xAA1EQACAAQEBQIDBwQDAAAAAAABAgADETEEEBIhEyBAQVAyUSIjMAUUQmBhkbFwcYCBkKHx/9oACAEDAQE/AP8AhmJoKxxI4kA16MsBeNYgMDbwMy2aW6N75LfpaxX6cy2aW6Nr5C/gZlorUHJLdG14NKbQL+BmWgWOSW6Nrx+GBfwMy2aW6Nr5C/gZls0G3RtfIX8FpEaR0jIDHDEBADX8tM1I4kcTpGehoI4hhXJO/gZma26N75C/gZnaNOS26N7xSBfwMzakDbfJbdGxo0A7bwL+Be4gkHJbdG3q3g0PeBf6p6SZmtuje+Qv4GZmtujcb5KKnwJFY0iNI/wxL0NI4kK9dvLtfJb+BZqRxDHEPSG8Uhb+BmXzFujN4NoW/QjDzGssNJdPUPrzLxpyFujN4rtSFvz4fCmb8R2ELhpS9oMiW11ETsFQVl/tyohdgqxJw6ShtfPEYQMNSX5cPhNY1PaFlInpENLVriJ+CBFZf7c0y8L3yFujN8lvzSU4jhYJWWN9hAmK1jHFSlawrhrRjZQR9Q78mAQbtkJpJ2G0LN1U22NssWmmaad88PL4kwKcmnBSQe0GcoNMsdL0uGHflmXgGmQt0bXyS/NgzSaInglRT3EGW+movX/e4pBlMNQA2Fv97mEBLl6Uj7QOyjkwD3XJUZdgdoWUwoCdhli2DTTTtngzSaMpkksWI/SGltQqBscvtA+kcsy+Yt0ZAMaRAAFuZSVNREmcJq1F82YKKtE+bxX1ckuYZbaliTPWaKjPEYoSxpW/IrFTURJnLNWovm7hBqaJ00zX1HlmDvlfrVdkNVMJj3HqFYP2geyxMnPNPxHmBI3EDFTR+KGxEx7nmVipqphcc4uKwce5sImTWmGrH8qs5BoI4hhXJND4Eml41iNY6Rr5LfwMzNbdG14oYW/gZnaKE5JbozsYB7mFv4GZ2jcwxqYS3Rm8Ghhb+BmdoqKUgwluja5yW/gZnbNLdGwockFT4GZmtvLEVjhiOGP6kriEdzLB3H1FmKxIB3H05kxZS6mhWDjUtupkyw7UMcBPaOBL9o4Ev2h5C0qM8ZitA0JeFYqaiMNiBOXe4zky10g0jSvtGlfaNK+0YhApBGeMxXDGhb/xEqa0ptSxJmrNXUucqQpWrR93SPu6R93SJ0vhnbJmCDU1oxGIM5q9u0Yee2HbRMsYBruOow3qOU1viCfxEoqRRYb0nLF4kSRRbmCSTUwstUlMp9VK/wBolzGltqWJE5Zy6hlJ9AhZgY1Zqfpniu2WKxIkrtePimN7kxMCrIKL2I/eMPPMlqi0I4dQy2ylegQ8w6tINIW18sV2gmgqYxeJM06VtEhQoM1rC36mMYauCfYRg8Vo+W9uow3qOT1V9dKiJQJYsRSsN6TlisMJy7XESzwnqwtCTZbB20/93iXLM19KRJkrKXSuUreWIDKJZQjeEBCgHLFdssbhtfzFvEmbwm1UrAmy+E3wj+1Yly2mNpW8SJIkppGUr0CPhWYdfeJHpPtXLFdoIBFDGLw3BNVsYXETEXSDtGJn8UgC0YPC6/mPbqJDBW3jUPeNQ941D3iZMUKd88ZheINa3/mFQudIvGGw4krTv3zlTlC0McdPeOOnvHHT3ifMDkUzxuFp8xLd4VSxoIwuHEld7nOSwKgQQDfKsYlgSAMmUONLWjEYcyWp2jCYYzTqa0AUFB4BZKK5cDc/UlYVJTlx/wCfTmS1mrpaFUINK2/pz//EAGsQAAECAwMFBA8SCAoKAgICAwECAwQFEQAGBwgSITFBE1FhshAXICI2N1RWcXR1gZWz0hQVFhgwMjhAQmByc5GTlKGx0yM1UlViwcPRM0ZQU4KEkrTC8CQ0Q2Z2g6Kk4eMlpWPxRKMmcJD/2gAIAQEAAT8A/wD+ZEwn8nlrm5zGbS+Ec/JfiUNn5CbLvzdJBou9MhSeGYMj/Fb0eXQ665B4RZ8q3o8uh11yDwiz5VvR5dDrrkHhFnyrejy6HXXIPCLPlW9Hl0OuuQeEWfKt6PLoddcg8Is+Vb0eXQ665B4RZ8q3o8uh11yDwiz5VvR5dDrrkHhFnyrejy6HXXIPCLPlW9Hl0OuuQeEWfKt6PLoddcg8Is+Vb0eXQ665B4RZ8q3o8uh11yDwiz5VvR5dDrrkHhFnyrejy6HXXIPCLPlW9Hl0OuuQeEWfKt6PLoddcg8Is+Vb0eXQ665B4RZ8q3o8uh11yDwiz5VvR5dDrrkHhFnyrejy6HXXIPCLPlW9Hl0OuuQeEWfKt6PLoddcg8Is+Vb0eXQ665B4RZ8q3o8uh11yDwiz5VvR5dDrrkHhFnyrejy6HXXIPCLPlW9Hl0OuuQeEWfKt6PLoddcg8Is+Vb0eXQ665B4RZ8q3o8uh11yDwiz5VvR5dDrrkHhFnyrejy6HXXIPCLPlW9Hl0OuuQeEWfKt6PLoddcg8Is+Vb0eXQ665B4RZ8q3o8uh11yDwiz5VvR5dDrrkHhFnyrejy6HXXIPCLPlW9Hl0OuuQeEWfKt6PLoddcg8Is+Vb0eXQ665B4RZ8q3o8uh11yDwiz5VvR5dDrrkHhFnyrejy6HXXIPCLPlW9Hl0OuuQeEWfKt6PLoddcg8Is+Vb0eXQ665B4RZ8q3o8uh11yDwiz5VvR5dDrrkHhFnyrejy6HXXIPCLPlW9Hl0OuuQeEWfKt6PLoddcg8Is+VaDn8mjqeYptL4iurcYlC/sNhpFRq/lV1xDLanHVpQ2gVUpRoAN8m18scboXdz2YWJVOIxOjc4KikA8Lh52nYqeC0+ygL5TeKLcjbhpY2o0bbZZD7vfUoEE9hIt53YuXy/hW7yRDTmx5aodk9gKKUWl+TtfOKbC4l6UwZOtD0QpSv+hCh9dmcmmekfhp5LEH9BDiv1C3paJx1wS/5ldvS0Tjrgl/zK7elonHXBL/AJldvS0Tjrgl/wAyu3paJx1wS/5ldvS0Tjrgl/zK7elonHXBL/mV29LROOuCX/Mrt6WicdcEv+ZXb0tE464Jf8yu3paJx1wS/wCZXb0tE464Jf8AMrt6WicdcEv+ZXb0tE464Jf8yu3paJx1wS/5ldvS0Tjrgl/zK7elonHXBL/mV29LROOuCX/Mrt6WicdcEv8AmV29LROOuCX/ADK7elonHXBL/mV29LROOuCX/Mrt6WicdcEv+ZXb0tE464Jf8yu3paJx1wS/5ldvS0Tjrgl/zK7elonHXBL/AJldvS0Tjrgl/wAyu3paJx1wS/5ldvS0Tjrgl/zK7elonHXBL/mV29LROOuCX/Mrt6WicdcEv+ZXb0tE464Jf8yu3paJx1wS/wCZXb0tE464Jf8AMrt6WicdcEv+ZXb0tE464Jf8yu3paJx1wS/5ldvS0Tjrgl/zK7elonHXBL/mV29LROOuCX/Mrt6WicdcEv8AmV29LROOuCX/ADK7elonHXBL/mV29LROOuCX/Mrt6WicdcEv+ZXb0tE464Jf8yu3paJx1wS/5ldvS0Tjrgl/zK7elonHXBL/AJldvS0Tjrgl/wAyu3paJx1wS/5ldjk0Timify+vxS7RmTje5mpho6TRCdgDziVfIUU+uxwdxMlNTAQjlBthJghP1Z4Noa/mJdwolLEwiZm0kH+AmrRcSvsFYrT4JtdnKWbVmt3nkakflPwC6j5tZ/xWuZf27d8myZDMm3n0iq4dYKHUjfzTpI4RUcP8o4oY0yW5+6wMtzJrOk1SWW1fgmT/APkUNv6I079LKexDxej3Q35sj4cL55tB3KEYOsDSQkEDfqo8Nrm5NzLeY/e+aF1WswkDzqewXFCp7wHZtdi6kiutDFiQSuGgkkUUpCarX8JZqpXfP8uRcMxGQ62Ithp9hYopt1AUlXZB0WvNgjcmeZ60S5UsiFf7SAXuYH9A1R8gtfjBG9F0Ijzyu269M4Rk56HYWqIlmm0pGk030k9gWw+ygptKVNwV8GFTOFSc3zSgBMQjsjQF9+h3ybXTvVJb2S7zbII9qLZFAtKdC2zvKSdKT2f5NmcwhJVL346YxDcNCMJK3HXFUSkWxOxrnN64xyTXRD8HLHF7klTIPmmKro2aUg/kjTvnTS2F+T+/GbjMr8FcOwaKTLm1UcX8YoetHANPCDaVy6DlMAzBSyFZhYRkZrbTSQlKR2B7wcQcKbtX1S49GQvmSZkaI2FASsn9Mal9/TvEWn13734MXpajoV5aGirNYjWQSzEJ15i07+jSk71RWgNsJsWJVfuHTCvZkDPUJ/CQilaHKa1Nk6xwaxwjT/Jd4Z3L7vSiImc4im4WDYFVrWfkAG0nYBpNsQb83gxcvKxJ5HDPiXlykLAIOlZ/nHTqrTTp0JHfJwfwql9w4FMTFBuMn7qfwsTSoaB9w3XUN86zwDQPeHN5ZBTmXPwE0hWoqDfTmuNOpqFD9R4dYtivg3MrmPrn10nIiIlTKt2OYo7vB001qNJSPyhpG3VW2BOMRvItuQXodQicUpDRJ50RX6KtgX9vZ1/yRNZjCSmWxMwmL6IeDhkFx1xepKR/nVa+V5Z9jJftiXSpDnmMuFEFCE0S2ga3XKbaVJOmg0Dhwsw4ldwJVucMBEzR5I80xqk0Uv8ART+Siuz5feMoBSSFAEHQQdtsesKXLsRarzXWbWiVKWFvMtVBg110KTTUgn+yeClMBsWEXthESSfOpReBhHOOHQItAGsfpgaxt1jbT+R8oDEh2985Tdm7q1uyph4IUWdJjH60FKa0g6ANp06dFsDcNm7iyHzTHoQqfxqQYhevcU6w0k8GsnaeAD3kPstxDDjL7aHWXElC0LFUqSRQgg6xbG3DiIw9nbE+u4463KHXgplSFELg3tYTXe0VSeCh1VOCl/2793VS5EqQJzB0ajGxoqfcuAbyqHsEEfyNlM4gLkMmbu5KX8yYzFBVELSeeaY1U4Co1HYB3xbJqwySwwzfCeMgvOCsuZWPWJP+2I3z7ng07RT3k3kksFeKRxkpmjW6wkU2W1jaN5Q3iDQg74tARE4wWxSUh4KcQwrMdSNCYuGUdY7IFRvKFNhtJpnCTmVQsxlzyXoOKbDrTidqT9h3xsP8iXnnkHduQR03mS8yFhGy4rfUdiRwk0A4Ta5UomGMGKr0VNc4wzjnmqNUkmjbIICW0nhFEDbTTsNmGm2GW2WUJbabSEIQkUCQBQADe95ePmHovpdgxUvaBnkvSXIeg0vI1qa7+scPZNslq/LkJNHLozF3/RYnOdgs8+sdGlSBwKAJpvg/lfyJlSX1cmU8ZulL1qMNBFLkVmf7R4jnU8ISD8quC2B9xxci5jLUS2BNo2kRGK2pVTnW+wkGnZKjt95uO92oi4eJbU5lFWIaNd83wq0jQ28lQK0jsKoqm8oC1xLyQ97bpy6dQtAIloFxANdzcGhae8oHvUP8hXsnkPdu7cynEZ/AwbKnSmtM8+5SOEmg79sC5HEX6xXM2mlXmoV1UyilkaFOFVUDvrNabyT7zsa7nC+dxIyEYbzpjDf6TBmmkuJBqj+kKjskHZbJXviZdPYq68c5mw8fV6GzvcvpHPJ/pJHypG//ACFlZ3q3GClt14Vzn3z5sigD7gEhtJ7Jzj/RFsm66vodw9ZjH282Nm5EWuo0hulGx2M3nv6Z95+NUreuJjEZlLEBpDrrc0haDQFZ1VD+2lWjeItJJkxOJPAzKDNYeLZQ+2f0VAEd/T/IMaDibjutoqU5CRsw3MFJ/wD4ze0b34NBPZNmm0NNIbaSlDaAEpSkUAA1Ae8/Ktu554XNg52yir0sfzXCB/snKA/IoI+U2yWbx+etw3pS8usRKXihIJ07kuqk/XnjsAfyBipPfQ5h7PZkleY83DKbZO84vnEHvFQPetkkyLzVeebTtxNUQMOGGyfy3DrHYSkj+l70LzShmf3emMpiv4GMYWyTSubnCgV2QaHvWyfJtEXUxbEpjgWxGFyXRCD7l0Hne/nJzf6R/kDK4nu4SGTSNpXPxT6ol0D8hAokHgJXX+jbJrkXnPhfBvuIzX5k6uMVXXmnnUd7NSD/AEveQ+83DsOPPuIaZbSVrWtQSlKQKkknUANtr8ZRcxcmLsPc+EhmYFtRSmKikFbj1PdBNQEg7xqdWrVb0wF+eqID6KP329MBfnqiA+ij99vTAX56ogPoo/fZOUDfhKgS9L1AGtDCih+u2C+MrV9YoSadsNQk7KSpotV3OJABKqA6UqABNKnQD2OTjWy5dTHGJmMOnN/0hiZs00VPOqJ/tpVaGebiYdp9lQU06gLQobQRUH2/lPRq5liuqDbqpUHCswyUj8pVXP2gtJYFErk8DANABuFYbYTTVRKQkfZ7yMp+8Lknw78xQzu5vzR8Q6qUqWgCpdNNaaEg69CqbbYAXTY863p/Hw7Tq4hRbhQ4kKzUpNFKFdpUKf0eG3mOG6nZ/sC3mOG6nZ/sC3mOG6nZ/sCzkBBuIUhyFh1IUCFJU2CCN46LX+l7+H+JLUZJqQ6ULRHQeaDmpFfW0rpFQQRtHAbSePamspgphD/wEWwh9v4K0hQ+o8jK+lObH3enCE/wjTkI4rezSFpH/Wv5LYJzbz5wtu9EKVnONw4hl79WiW9PeSD3/b8R/wD5TlHEevacngSf0mml04qOTGxcNAQjsVHRDMNDNDOceeWEIQN8qOgC3o8uh11yDwiz5VvR5dDrrkHhFnyrejy6HXXIPCLPlW9Hl0OuuQeEWfKtKZvLZxDqflEwg49hJzS5CvJdSDvVSSK+8HK/jS5PbuwNDRmGders59QH7O2G8MmEuFIG0AAKg23NBJ0rGcfrVzOUrCJzZFGAHP8AwrSjp0jnSP8AF8vBbAaLVG4R3cdVWqWVtad5Di0Di8jKdlYmGFcTE05+XxLMQN/Srcz4yvetkkTJT9zpvLlmvmSMDieBLiBo+VBPf9vTKLRAS6KjHf4OHaW6rsJBJ+y2TVCLmuLzMa9z64Zh+LWeFQzK/K5yFKCElSiEpAqSTQAWxLvTNsU7/ed8pUt6XNvKagGAaIzRrdVwkAmp1DRblFTP88wfzarcoqZ/nmD+bVblFTP88wfzarcoqZ/nmD+bVZ1q8OEd9IN9l9O7JCXkqbUdxiW688hQ0VGsEHSNBFNBtdKfQt57tS6cwB/0eMaDgTWpQrUpB4UqBSeEe8DK56NZN3P/AGi7XF6CLvdzofxSeZyk/wASSbthfFtk6dJu739Y/vDvIxihPNmF152qVzYFx3+wM/8Aw2yP4vMml5YOv8Kyw6B8FSx/j9vYnPbhhxehytCJZEgdktKA+22SGznXqnr1PWQSUV7Kwf8ADyMbJoqUYWXiiULCHFw3mdJrpq6Q3o4aKNsm6Vocj5vNV1z2W0Q7e9zxzlHs86n5TzOUBK0Rtx/N1BusA+hYV+is5hHylJ71sk6aqi7iR8ucNTAxhKNOpDiQQKfCCz3/AFdxxDSCt1aUIGtSjQC3n9J/zrL/AKSj99vP6T/nWX/SUfvt5/Sf86y/6Sj99vP6T/nWX/SUfvt5/Sf86y/6Sj99vP6T/nWX/SUfvt5/Sf8AOsv+ko/fZicyx91LTExgnXVGiUIfSok8AB9XvtjzeyDvbNoOVeYYeChYpyHaQtjPUQhRTnKJOs0rb0wF+eqID6KP329MBfnqiA+ij99vTAX56ogPoo/fb0wF+eqID6KP329MBfnqiA+ij99vTAX56ogPoo/fb0wF+eqID6KP32yf8UZ7fecTKWz5EIvcGPNDbzLeYoc8ElJFaEaa7+vXs9o5XPRrJu5/7Rdri9BF3u50P4pPM5Sf4kk3bC+LbJ06Td3v6x/eHeReWE833cmsHSvmiEdapv5yCP12yUYvcMSYlknRES5xAHCFoV9gPt7Gt3ccKrzKrSsIUf2iB+u2R6zWKvU9+SiGR8pdP6uRlPqUnCmJAJAVFMg0OsZ1f1WycWwLmzBzTnKj1JPebb/fzOKoCsPJ6FAEeZ66eyLZHjtIm9TVPXIhVVrqoXR/i9XyuYl9u6clh23VpZejFFxANAvNRorv0ra7uH84n8qbmECqEDDhUkbo4QdBodFDblTXi/LgPnj5NuVNeL8uA+ePk25U14vy4D54+TblTXi/LgPnj5NuVNeL8uA+ePk25U14vy4D54+Ta8khmF1ZoxDxjjaYkoS+hbCyc3niAa0FDVJtIHXH5FLnnlFbrkM2tajrJKQSfVoLp2xHdd/xi+bvL0OTXtR3iG2SN0aznuf+0R7SyuejWTdz/wBou1xegi73c6H8UnkIiWHIhxht5pT7YBW2lYKkg6qjWOTlJ/iSTdsL4tsnTpN3e/rH94d5OBv/AMZjvAwqPWB6Khz2A25T6wPb2UO7uOD14DXSoMoHffbH2Vtkfs5spvK9+W+wj5ErP+LkZUHSpf7bZ+02ycugiO7or8U1zOKfS9nva5+0WyPvxlef4qH+1fq+V70OXf7bc4lsHugOC+Md455vHbouhO0UeMctdnoblXajXEHq0F07Yjuu/wCMXzd5ehya9qO8Q2yRujWc9z/2iPaWVz0aybuf+0Xa4vQRd7udD+KTaZwd/rzTGKYS751yxLqkIVXcs5IUQDoqs1HeNsBgpM2nSVmqg2gE75zjycpP8SSbthfFtk6dJu739Y/vDvJw6/A5RjCd6axSPGD29lJdJ+c/Dh/HItkhdDM/7cRxORlQdKl/ttn7TbJy6CI7uivxTXM4p9L2e9rn7RbI+/GV5/iof7V+r5XvQ5d/ttziWwe6A4L4x3jm0NN2X55GSsNuIfhkJcKlUzVpUNY7FaWhJ9CRV4IyUNhfmmGQFqUaZp1Vp2M4WevDDNRk2h9yeUZaxu7ygBQ87nZo066WbvtD+Z24mIlc1YglgERKmKtgHaSDqsw62+yh1laXGlgKSpJqCDtHIx26LoTtFHjHLXZ6G5V2o1xB6tBdO2I7rv8AjF8iFvTFQl946DmDhVLFPBhtZSAGVkVSK7x06/1Wm0wimL5yKCadKYWIQ8XUUHPFKCRw67QpnE3vBO2GJ05BswbqUNoSwhYoQd/sWufM4+Ji5tLpm6iIdgHUoEQhISHAa6wNAIp9fIvL0OTXtR3iG2SN0aznuf8AtEe0srno1k3c/wDaLtcXoIu93Oh/FJ5GBf46nvwU8ZXJyk/xJJu2F8W2Tp0m7vf1j+8O8m5XskEd2onjOe3spLpPzn4cP45FskLoZn/biOJyMqDpUv8AbbP2m2Tl0ER3dFfimrTuaQsllj0fMFlEMzTOISVHSQBoHCRafYvOrStMhl+agaN3idNP6I0DvnvWuRMIiaXUl0bGrC4l5vOWoJAqakahyMU+l7Pe1z9otkffjK8/xUP9q/V8r3ocu/225xLYPdAcF8Y7xzaeOIlV+pXMHDmMRUM5Duq2DN54fq+S0mbXBxElvG6ClUxjXUP1/Jd0IHYBTXv2lI81XXvdNTp82mIKDvtpQQn7Ta6LaHboSxtxIUhcMlKknUQRpFsMlH0NKbCippqJcQ0T+TWv2k8jHbouhO0UeMctdnoblXajXEHq0F07Yjuu/wCMXyJdK2JzM74wUSOcceborahVFUUOxaTx0W9faQy+ZpIj5eH2XF7HBuZzVd8fv22lklhpvee8xinYlsNvoA3F4oBqDrpr1WuEEQE3nMng3ExEDDKQ428AnOqoaQpQGk7O9yLy9Dk17Ud4htkjdGs57n/tEe0srno1k3c/9ou1xegi73c6H8UnkYF/jqe/BTxlcnKT/Ekm7YXxbZOnSbu9/WP7w7ybleyQR3aieM57eykuk/Ofhw/jkWyQuhmf9uI4nIyoOlS/22z9ptk5dBEd3RX4pq00l8LNIJcJMGUvwyyCptRIBoQRq4QLYvQcNAXAUxBQ7MOyIhuiGkBI27BbDToEk/xJ4x5GKfS9nva5+0WyPvxlef4qH+1fq+V70OXf7bc4lsHugOC+Md45tfmQPXglLcPCuNtxDboWlThIFKEEVAO/9Vp5IRG3WMphVJbU22hLK1EgJKKUOjsfXaEkbkNcpUmbU3u5hVtFVTmZ6gamtK0qd60JJr0plLMrVGyuGhENhousJWp3N1baCvyWlEuh5TLmYKDSUstCgqaknWSeEnkY7dF0J2ijxjlrs9Dcq7Ua4g9WgunbEd13/GL5EHLoWDiouIhmsx6KUFPKzic4jVoJ0a9lnZTAuzZmZrhwY5lJSh0KIIBBGqtDoJ12jrnyKPjHYqLgd0fdOctW7OCp7AVS0rlkFKofcJfDtsNk1ISNZ3ydZ5F5ehya9qO8Q2yRujWc9z/2iPaWVz0aybuf+0Xa4vQRd7udD+KTyMNrmzC7EwmT8e9CuIiQkIDKlEihJ01SN/k5Sf4kk3bC+LbJ06Td3v6x/eHeTcr2SCO7UTxnPb2Ul0n5z8OH8ci2SF0Mz/txHE5GVB0qX+22ftNsnLoIju6K/FNcjGvoHc7Yb/XbDToEk/xJ4x5GKfS9nva5+0WyPvxlef4qH+1fq+V70OXf7bc4lsHugOC+Md455vHbouhO0UeMctdnoblXajXEHq0F07Yjuu/4xfN3l6HJr2o7xDbJG6NZz3P/AGiPaWVz0aybuf8AtF2uL0EXe7nQ/ik8zlJ/iSTdsL4tsnTpN3e/rH94d5NyvZII7tRPGc9vZSXSfnPw4fxyLZIXQzP+3EcTkZUHSpf7bZ+02ycugiO7or8U1yMa+gdzthv9dsNOgST/ABJ4x5GKfS9nva5+0WyPvxlef4qH+1fq+V70OXf7bc4lsHugOC+Md455vHbouhO0UeMctdnoblXajXEHq15I2IkGKM4i0tJMRCzSIUEOVoTuitdLcuCb/m+A/wCvyrcuCb/m+A/6/Kty4Jv+b4D/AK/Kty4Jv+b4D/r8q3Lgm/5vgP8Ar8q3Lgm/5vgP+vyrR+K81jYGJhVwMClD7amiQF1AUCN/htkipJvnOlAHNEvoTTQDuiP3H2llc9Gsm7n/ALRdri9BF3u50P4pPM5Sf4kk3bC+LbJ06Td3v6x/eHeTcr2SCO7UTxnPb2Ul0n5z8OH8ci2SF0Mz/txHE5GVB0qX+22ftNsnLoIju6K/FNczin0vZ72uftFsj78ZXn+Kh/tX6vlAXEmd+btQLUjLKo2DiC7uTq8wOIKSCAdWdXN10FK6dVkYH4iISEogG0pGoCObA41uUjiN1Ej6c35VuUjiN1Ej6c35VuUjiN1Ej6c35VuUjiN1Ej6c35VuUjiN1Ej6c35VuUjiN1Ej6c35VhgTiA+8gPQMOKkJK3IxshI3zQk07AtLIXzDLYSEz8/cGkNZ9KZ2aAK02avVo678mmESqIj5RLop9QALj0MhaiBq0kVt6Ert9b8o+hN+Tb0JXb635R9Cb8m3oSu31vyj6E35NvQldvrflH0JvybehK7fW/KPoTfk29CV2+t+UfQm/Jt6Ert9b8o+hN+TaWyyAlja25bBQsG2s5ykw7SWwTvkADT7Syu2qXskbtfXQKk0pqo4T/itcJaV3Hu+Umo872B3w2kHmcpV2kukTVRzzrqqbdASP8VsnpotYO3eSogkpeVo3i+4R9vJuV7JBHdqJ4znt7KS6T85+HD+ORbJC6GZ/wBuI4nIyoOlS/22z9ptk5dBEd3RX4prmcU+l7Pe1z9otkffjK8/xUP9q/eBlcyZUTduSzhsV8xRC2HKfkuAEE6NQLYGv3XDowLm6ZlcOHhyqr8AtTC+xXOSfkIHe5nKBmnnhfKHl7HPiCZCCE6fwizUj5M21xpSZDc2SStdC5CQbTThAoCsJGcflrybleyQR3aieM57eykuk/Ofhw/jkWyQuhmf9uI4nIyoOlS/22z9ptk5dBEd3RX4prmcU+l7Pe1z9otkffjK8/xUP9q/eBe2Qwt57tTGTR4/0eMaLZVSpQrWlY4UqAUOEWmUDevCS9MQ2A4wSS2h8t5zEU3WoIroOw01jVoty472fz0H9HFuXHez+eg/o4ty472fz0H9HFnMYr2qQpKYiFQSCApMOmo4RXRbAXDibT69jF6bxQzqZaw6YpK4kEKinqkggHSQFc8SdZAGnTTk3K9kgju1E8Zz29lJdJ+c/Dh/HItkhdDM/wC3EcTkZR0AqOwkmym84rhlsvhI2gOJBrwAKJ71sm2NSuTzmBzueafQ9m8Ck0r/ANHM40xiYTDiaBRop/c2UCtKkrFfqBtkfwa0Su80aUnc3nmGQaihKErJ0a/9oPl95VyvZII7tRPGc9vZSXSfnPw4fxyLZIXQzP8AtxHE5F45SxPZBMZVFU3GMYWwolNc3OSRnAb41jhFrgTV7DvEOKgp4Cy2laoKMppCCFaFjRpAIrUawa2TfC7Skgi8MooRXTGNj9dvRfdrrhk/01ryrei+7XXDJ/prXlW9F92uuGT/AE1ryrY6X1hJ49CyiTxIfhIZZcfdbILbi6USEkawBnadWngtgXdld1sNpbCxLW5RsTnRkSnbnr1A7xCAgHhHvKuV7JBHdqJ4znt7KS6T85+HD+ORbJC6GZ/24jicnFjByWX8jEzJmMXLZuEhC3g3uiHkgaApNRpGgBQOrWDop6WicdcEv+ZXb0tE464Jf8yu3paJx1wS/wCZXb0tE464Jf8AMrthvgDBXenLU0vDHNTV1g5zMMlnNaSsHQpRJ56m9QCu/wC8u5XskEd2onjOe3spLpPzn4cP45FskLoZn/biOJ7yZ7NoKRSeLmk0eDEFCoLjrhFaDgA1kmgA3zafZSsaZg4JBJIYQINEKjVKLihvkJNE9ip7NvTKXk/M0o+RzyremUvJ+ZpR8jnlW9MpeT8zSj5HPKs1lK3hDiC7JZUpsEZyUlxJI2gHONDw0NsMsQZXiBKHYqWpcYiYcpTEwrmlTRNaGo0FJoaHgOgcxcr2SCO7UTxnPb2Ul0n5z8OH8ci2SF0Mz/txHE95OVtedSUSq7DBolX+nRBCtdM5KEkb3rjp/R3rYTXFlkvunCxcygYaLj45CYha32krzEqFUoFRo0UJ4Sd4U9Dkk/M0t+io/db0OST8zS36Kj91vQ5JPzNLfoqP3Wmdz7vTGCdhYiTwKUOJIzm2EoWnhSoCoNsJZm/cDGJmAi3qQ64lUuiTnlCFBRzULOygJSrTsrq18xcr2SCO7UTxnPb2Ul0n5z8OH8ci2SF0Mz/txHE5OO+K01mV4oi7F1oh6HgodzzO65CqIdindRSCNOaDVNBr01qCAG7k4lLQlaWpiAoAjOmKAe+C5UW9A+Jf83H+E2/vLegfEv8Am4/wm395b0D4l/zcf4Tb+8tdu/F9MMbzsMTp2NchSUqfgIp0uoW0TpU2c4gK0GigaVGmoqLSOaQs7k8FM5e5ukJFtJeaVtzVCtDvEaiNh94GUE+ZtjVHQmeShsw8Kgk6gUJJ2flLVZtCW20oQKJSAAODmccWTLsSnYmGO5uutMxAUnYoDNr/ANANoGITGQUPEt+sebS4nsEV/XybleyQR3aieM57eykuk/Ofhw/jkWyQuhmf9uI4nIxGnRu9cWeTRtZQ7Dwqy0oaw4Rmo2H3RGy2T5J0TK9cZM4pIdEC0CnP0kOrOhXyBffPM5QclbjLoomiUAPwDqc5eaKltZzaV1+uKf3bRkoThcbcOMlrpqZdFkN89WiHBnUps57P4NPZ94GKHshovulC/Y3zWUYkC/EGQACZe2Tw/hHLXZ6G5V2o1xBybleyQR3aieM57eykuk/Ofhw/jkWyQuhmf9uI4nIyk1qRhBN0pNAtxhKuEbsg/aBbJtZSmQTd8euXEpQewlFf8R5nE1pL2H8+SsVAhVq740j6xbI/iCmaXmhtNHGWHNWjnVLH+P3gYoeyGi+6UL9jfNZRvRvA9zkeNdtdnoblXajXEHJuV7JBHdqJ4znt7KS6T85+HD+ORbJC6GZ/24jicjKW6UU0+NY8am2Tf0LTPt3/AAJ5nEfoCn/aTvFNskLokvB2o3x/eBih7IaL7pQv2N2vjeKHuxJXI6ITui6hDTQNC4s7K7BoJJ4LQEzxGvHD+b5buEJBrJLaShtIUODPBJHDqtcm/cycvCZBemHS1GlRQhwJzTn0qEqA0aRqI4N+vJyjejeB7nI8a7a7PQ3Ku1GuIOTcr2SCO7UTxnPb2Ul0n5z8OH8ci2SF0Mz/ALcRxORlLdKKafGseNTbJv6Fpn27/gTzOI/QFP8AtJ3im2SF0SXg7Ub4/vAxQ9kNF90oX7G7X0unD3rYhWYuKfYQwpSwGqc8SANNR/mtoKHRBwbEMyKNstpbSOACgtMFIvFjVCednPNwa2y66nUdy0qNd6vO8nKN6N4Hucjxrtrs9Dcq7Ua4g5NyvZII7tRPGc9vZSXSfnPw4fxyLZIXQzP+3EcTkZS3SimnxrHjU2yb+haZ9u/4E2cWltCluKShCRUqUaADfNojEK6zD25LmzalVpVtta0/KEkWlczgptCiIlsU1EsnRnNqrQ7x3j2eRiP0BT/tJ3im2SF0SXg7Ub4/tCMxkv8AzacPrl00fZD61KahIZhCwhOsJHOkmg28FbcsXFXq6b/QU+Rbli4q9XTf6CnyLcsXFXq6b/QU+Rbli4q9XTf6CnyLcsXFXq6b/QU+Rbli4q9XTf6CnyLcsXFXq6b/AEFPkW5YuKvV03+gp8i3LFxV6um/0FPkW5YuKvV03+gp8i3LFxV6um/0FPkW5YuKvV03+gp8i3LFxV6um/0FPkW5YuKvV03+gp8i3LFxV6um/wBBT5FuWLir1dN/oKfItyxcVerpv9BT5FuWLir1dN/oKfItyxcVerpv9BT5FuWLir1dN/oKfItyxcVerpv9BT5FuWLir1dN/oKfItyxcVerpv8AQU+Rbli4q9XTf6CnyLcsXFXq6b/QU+Rbli4q9XTf6CnyLcsXFXq6b/QU+Rbli4q9XTf6CnyLcsXFXq6b/QU+RaKxVxKl6m1Rk4jocqNUbtCNpCqa9BRp1i2GM+ibz3Ck04jkoTFRLNXczUVJUUkgbK5tabK+0cUPZDRfdKF+xvkYmXydZd9D13ip2aRBDbi2tJbr7lP6R+ocOrDm6Dd1pWS9mrmUQAX1jSE7yBwD6z3uTlG9G8D3OR41212ehuVdqNcQcm5XskEd2onjOe3spLpPzn4cP45FskLoZn/biOJyMpbpRTT41jxqbZN/QtM+3f8AAm2NTs0iWZfKpaxEOMPkrfLTaiDQgJBI2Vqadi0rw3u7CS1ENEQKYp4po4+4pWcpW0ih53vWucy5dfF16Swjq1wbpU2oHTVO5lxNeEaBXs7/ACMR+gKf9pO8U2yQuiS8HajfH9oZNPTdlfxT/ile3ssX+KP9c/YWwE6UV3Pil+NX7RxQ9kNF90oX7G7Yo3jibuXdDsCkeaolzcUOH/Z6CSqm06NFrhXplV3Hno2OgYmNmjpP4YrFEA66V01O0/8AmvLkl/5qi/7abMOB1ltwAgLSFUOyo5GUb0bwPc5HjXbXZ6G5V2o1xBybleyQR3aieM57eykuk/Ofhw/jkWyQuhmf9uI4nIylulFNPjWPGptk39C0z7d/wJ5F8Lxwl2ZQuMiiFOHnWWQdLi97sb52WwmksXHzSLvZOAd2iCrcARSud65Y3hTnRwV4ORiP0BT/ALSd4ptkhdEl4O1G+P7Qyaem7K/in/FK9vZYv8Uf65+wtgJ0orufFL8av2jih7IaL7pQv2N81lG9G8D3OR41212ehuVdqNcQcm5XskEd2onjOe3spLpPzn4cP45FskLoZn/biOJyMpbpRTT41jxqbZN/QtM+3f8AAm14ZzByGVvR8wczWmxoSPXLVsSkbSbXdlEfiNP1TyfBTcnZVmssgmiwD6xPB+UradHYbQhptLbaUoQgBKUpFAANQA5GI/QFP+0neKbZIXRJeDtRvj+0Mmnpuyv4p/xSvUcfIuMgsPnHZdFPwsQYplIcZcKFCp1VGm1wL0xE7utMYObAsXilKFw8a2TRWcAc1wcCqaxtBpopaU3tmkqwEksZDvuRE7mEQuBh3n1FxQcU+6ASTWtEpNK7wtNcPZpKpC/NJbeyeuXihmjEFx2JzmXlJFSgtn3JoQASaV01tcedm8d0ZVNlJSlyKYCnEp1BY0KA4Kg2mssdvJjNM5XEzebwkExLG30NwUWpkZ+ckVoNG02u07Mrs4nO3V8+42cy1+XGMBjXN1ehlhRABXvEDV+kNG/gTGRMfhpLoiOiHol9TjwLjyytRo4oCpOmwmcf5gxcV5tiqwi1CHO6q/A84r1mnne9bA+9kdFwSLvXkW4Zo3DojIV51VTEwywFA1OsprQ/+DbCKMioyIvkIuJefDM9iG291cKsxAIolNdQ4B6nli/xR/rn7C2AnSiu58Uvxq/aOKHshovulC/Y3zWUb0bwPc5HjXbXZ6G5V2o1xBybleyQR3aieM57eykuk/Ofhw/jkWyQuhmf9uI4nIylulFNPjWPGptk39C0z7d/wJtiBcw3uECPPEwaYbPJG47oFlWb+kKUzfrs1hPGstpbavVEIQnUlMOoAd7dLQuGMexEsuqvVFLCFhRSWVaaGtP4TkYj9AU/7Sd4ptkhdEl4O1G+P7Qyaem7K/in/FK9Ryg+l6e3WONbFmWRcgmCb8SForcbaMNNIdP+3hyKZx4U6NPADqSbS+XxUVk9XajoBhcQ/KY4zHcka1JREO531EnvWvDiZdgXNio6Cm0LEPvQ6ksQqHAXlOKTRKSj1w0kVqNFsK5Q9IsPZJL4ltTb6GM9xCtaVLUVkHhBVS0yu9C3jxzm0NGvRjKG5S24DCvqaUTnJGkjWNOq2GEDD3Tv1eO7Ea2DHxH+lwUc7zzkTDn3BUdeaRq2kKOy2C14pTIbmrkc8mMJLpnLIh5t9iKdS0oc+TUZ1KjTstK1+eNzMVZ5DpV53zFx4wrihTdEoSoZw4NP22jruRcfhndC8F3xm3ik0vh34cgfwyNzTntHfqK0HZHujbJ6j/PWV3nmO57n5rnDsRmVrm56UqpXgr6nli/xR/rn7C2AnSiu58Uvxq/aOKHshovulC/Y3zWUb0bwPc5HjXbXZ6G5V2o1xBybleyQR3aieM57eykuk/Ofhw/jkWyQuhmf9uI4nIylulFNPjWPGptk39C0z7d/wJ5nEfoCn/aTvFNskLokvB2o3x/aGTT03ZX8U/4pXqMwgIOZQ/meYwkPFsZwVub7aXE1Go0IpWzzaHmltPIS40tJSpChUKB1gjaLQEDCS6ERCy+FYhYVuuYyw2EITUkmiRoFSSe/aHutIIaYeboeSSxqNrnB9EKgLB3waVrw8hEBBomC49EJDpjloDa4gNpDikD3JVSpHBZ+XQMRHQ8a/BwzsZDghl9bSVONg681RFRXgtNbtSObxAfmknl0Y+AAHH4ZC1UGypFacFlwMIuAMEuFYVBFG5mHLYLZTqzc3VTgtDMMwsO0xDNNssNJCG220hKUJAoAANAA3rS+WwMuS6JfBw0KHll1wMNJbz1nWo0Gk8J9Tyxf4o/1z9hbATpRXc+KX41ftHF8qhMfZg4uiSiNhnOeOimY2oV73NZQzu6X7ZTVP4OBbRo+Es6fltIGlMyKXNLIKkQzaTTVUJA5NyvZII7tRPGc9vZSXSfnPw4fxyLZIXQzP+3EcTkZS3SimnxrHjU2yb+haZ9u/wCBPM4j9AU/7Sd4ptkhdEl4O1G+P7QlULfC5N5VxMsgY6EmsGpbO6CE3QCoKTTOSUkEbacIty0cWuq4/wAEtfdW5aOLXVcf4Ja+6ty0cWuq4/wS191blo4tdVx/glr7q3LRxa6rj/BLX3VuWji11XH+CWvurctHFrquP8EtfdW5aOLXVcf4Ja+6ty0cWuq4/wAEtfdW5aOLXVcf4Ja+6ty0cWuq4/wS191blo4tdVx/glr7q3LRxa6rj/BLX3VuWji11XH+CWvurctHFrquP8EtfdW5aOLXVcf4Ja+6ty0cWuq4/wAEtfdW5aOLXVcf4Ja+6ty0cWuq4/wS191blo4tdVx/glr7q3LRxa6rj/BLX3VuWji11XH+CWvurctHFrquP8EtfdW5aOLXVcf4Ja+6ty0cWuq4/wAEtfdW5aOLXVcf4Ja+6ty0cWuq4/wS191blo4tdVx/glr7q3LRxa6rj/BLX3Vr4zq/N8vMfokaj43zJn7j/oAbzM/NzvWIFa5qde9bBuWRknwxu/BTJhcPFtsFS2liikZylKAUNYNFCoOkHR7RyqZS5AYiw8ySTucfCoUFCootvnSPkCD37XVmzc9u5Lpk0sKEQylaqbF0ood5QI73M3hQb94ymDgiHGouNbhELSKgNpolS9GsAJUrscxcr2SCO7UTxnPb2Ul0n5z8OH8ci2SF0Mz/ALcRxORlFQrkVhDO9yBKmiy6QBrAdRX5BU962TXEhUpncLU1bfbcIp+Ukj/BzOKcSmFw9nrixUKhy3rppWQkfWq2R9CqMTeeLKU5gRDtBW2pKyR2NA+r3gY33BVfy6YYg1JRNYJZfhSrUs5tC2TqGdo07CBsra7N+7x3DRFSdEOx+DeVnw8a0rOZXqUNCgRq1fvty8by9Qyf5p37y3LxvL1DJ/mnfvLcvG8vUMn+ad+8tMsZryx0BEQu4S2H3ZBQXWWlhaQdFUkrIB71smfDaMgo03sn0K/CuISUQDLqcxRCgQp0g6QKEgV11J1U5i5XskEd2onjOe3spLpPzn4cP45FskLoZn/biOJyL2Sdu8F2ZpKXaZsZDOMgk0zSUkA6jqNDqOq2EE2XdPEB2XzYeZg+VQT6XAPwboVoqa6KKBHf745jKHvI21L4a78OtKnnlB+IofWIHrQeydP9HhtkySFUnw1ai321Ifmb6ornhQ5mhKO8QnOHwveDMZLKpmtK5jLIGLWnUp9hDhGrVUcA+S3oSu31vyj6E35NvQldvrflH0JvybehK7fW/KPoTfk2YuvIGHUusSOVtOpNUrRCNpIPAQOZuV7JBHdqJ4znt7KS6T85+HD+ORbJC6GZ/wBuI4nJxpwSfvPN4i8F2HmUR7wBiIR45qXVAAZyFagogCoOgnTUW5TeJn5ne8IMfeW5TeJn5ne8IMfeW5TeJn5ne8IMfeW5TeJn5ne8IMfeWuNk/wB4ZhN2n75ZkBL0KBdaEQlx90D3IKSQBo0kmo2DeYZbh2G2WG0NMtpCEIQkJSlIFAABqAGz3lXK9kgju1E8Zz29lJdJ+c/Dh/HItkhdDM/7cRxPencr2SCO7UTxnPb2Ul0n5z8OH8ci2SF0Mz/txHE96dyvZII7tRPGc9vZSXSfnPw4fxyLZIXQzP8AtxHE96dyvZII7tRPGc9vZSXSfnPw4fxyLZIXQzP+3EcT3p3K9kgju1E8Zz29lJdJ+c/Dh/HItkhdDM/7cRxPencr2SCO7UTxnPb2Ul0n5z8OH8ci2SF0Mz/txHE96dyvZII7tRPGc9vZSXSfnPw4fxyLZIXQzP8AtxHE96dyvZII7tRPGc9vZSXSfnPw4fxyLZIXQzP+3EcT3p3K9kgju1E8Zz29lJdJ+c/Dh/HItkhdDM/7cRxPencr2SCO7UTxnPb2Ul0n5z8OH8ci2SF0Mz/txHE5OJ+PyZHOHZXdKFhY92HJQ/FROcWs8EVSgJIKgNIJqBXVUa/TI3v/ADbIPmHvvbemRvf+bZB8w997b0yN7/zbIPmHvvbemRvf+bZB8w997bB/G1i+MwTJ5/DMS+bOD8Atoncog7UgGpSqmoEmunTWgPvKuV7JBHdqJ4znt7KS6T85+HD+ORbJC6GZ/wBuI4nIxzvI5dfDWaRcK4W4yICYRhQB0KWaE12EJzyDvgWwCumxNI2LnUxYafhYU7iyhxIUku0BKqH8kEd9VdlvOeWfm6D+YT+63nPLPzdB/MJ/dbznln5ug/mE/usqTStSSlUtgiCKEFhOn6rYvXdRc298HHSQGGYiP9JYCRoZdQrSE7KA5pA2Vpqpa5M9Tea6UpnKUpQYyHS6tCTUIXSikjgCgR3veVcr2SCO7UTxnPb2Ul0n5z8OH8ci2SF0Mz/txHE5GV7FrRdy78GB+Dei3Hia7UIoNH/MNsD4QQ2HEuVQBT63XVcPPkD6kjmco6DDt1ZdFj1zEZmd5SFV+tItkvxSojClhtSlEQ0W80kHYCQug4KrPyn3gZQWJERcmTw0BJXEJnUeCUuEBRYaGgrodFSdAro0HetLJFiJeKETM4RyaxLL5JDzsfmlfDz6wSOG3oHxL/m4/wAJt/eW9A+Jf83H+E2/vLegfEv+bj/Cbf3lo+HxDuSWJrFREzggleal5MWHUg7ygFKFDvKFDbBLEH0fXYcei0ttzaCWGYpCNSqiqXANgVRWjfSeYuV7JBHdqJ4znt7KS6T85+HD+ORbJC6GZ/24jicjLEUQm6SanNJiyRXQT+B/ebYQdLeSfFr8YrmcoToCb7db4q7ZJPS4mXdZzxLPvAxNiXb644RsKldWzHJl7dCVJQhshBI4KhStG+bMMtw7DbLCAhptIQhKdSQBQAcxPJazOJPFy6KFWYlstq16K6joI28Nsm+aOSHFlqXvrzURrbsE4K87njnk9/ORQH9Lh5i5XskEd2onjOe3spLpPzn4cP45FskLoZn/AG4jicjLF/ij/XP2FsIOlvJPi1+MVzOUJ0BN9ut8VdsknpcTLus54ln3gYWhcbjEw8+rPXu8S8tSjpUrMXp+U15qUL878oWFLA0GfhFNGgLeoeMeYuV7JBHdqJ4znt7KS6T85+HD+ORbJC6GZ/24jicjLF/ij/XP2FsIOlvJPi1+MVZ95thpTr7iG20iqlrUAB2SbT/E+QSzORCuLmL40ZsOOcrwrOj5K2lUWJhK4OMCNzEQyh7MrXNzkg0r3+RlCdATfbrfFXbJJ6XEy7rOeJZ94GD3Taa7MRxVc017IOD/AOImf7wnmLleyQR3aieM57eykuk/Ofhw/jkWyQuhmf8AbiOJyMsX+KP9c/YWwg6W8k+LX4xVr5XcavRK24F+IWw2l5LqlISCTQEU06teu2Kd0ZRdq7sAqWMrDy4jMW84sqUoZpOnZ8gFrp9Csm7SZ4g5GUJ0BN9ut8VdsknpcTLus54ln+QIqJYhGt1i32mGgaZ7iwkV7JtEX1utDOFuIvLJGnBrS5HtJPyFVpdeCTTJQTLpvL4tRAIDEShw0OrUfb2D3Taa7MRxVc017IOD/wCImf7wnmLleyQR3aieM57eykuk/Ofhw/jkWyQuhmf9uI4nIyxf4o/1z9hbCDpbyT4tfjFcjHvoel3bX+BVrp9Csm7SZ4g5GUJ0BN9ut8VdsknpcTLus54ln1a8mL1ypA6pmKnTUREJVmqag0l4gilalPOildp3942j8peTIC/MEgmD5A53d3UNVPDTOp9dk5TcKUjOuu+FU0gRoIB/sWk2UTdCNcQ3MGJlLiTQuOMhxCdG+glX/Tvd6715JLeOH3aRTSDjkABSgy6FKRXVnJ1pPAQPVMQsSrvXGhyJlEh+PI5yBh1BTp0EgqFedSd896trz453yvPEmDkCPOtp4hKGIJJdfVpJpn0rXV60DV2bIuDfm8r5iZomIK/56ZRJKjt2kq+qyME54UjPmMtCtoClkcW0dgzeNhOdDvy+J0VzUuKSa73PJA+u0NOsRsPtAiprBQyFUzHTu0PWoOiucjSdo12uDlFQUa43CXxg0wCyKebofOW0VfpIoVJHCCrvWgouGj4RqKgYhmJhnRnNvMrC0LG+FDQR6lOp1LJHCKiZxHwsEwAVZ77oRWlNVdZ0jQN8WvFlHXcgnFtyWXx00Ka0cVSHbVvUJBVTXrSNnejspO8jiaQUolLBIpVwOOHvc8OCzGUhe9ASHICRuAHSSw6CR3nKfVaSZTHPpRPLu0RTnnYN+prwIUNWr3Xy2uRidda+StylUwDcZUjzJEjc3T2BWiu8Tw+qYPdNprsxHFVyL43ovKifvyW7Er3RbaU50TmFdM5IO2iU69tbXMiJ0cVoSGvBFPPRbW6haFOZyUktKNABoHe5LXsg4P8A4iZ/vCeYuV7JBHdqJ4znt7KS6T85+HD+ORbJC6GZ/wBuI4nIyxf4o/1z9hbCDpbyT4tfjFcjHvoel3bX+BVrp9Csm7SZ4g5GUJ0BN9ut8VdsknpcTLus54ln1TEzESUXAlqHpjnREa9XzPBtEBbnCfyUjf8Akra8t9r64pTRUNDIfENSggYIqSygaRVZJpUgkEqNOxqtIME3VhLk+mQbqASzCJqRp0jPVo1cB0ng0weFF0odI3SAdiFChznYhf2JIH1WXhrdFaSkyZsA7zrgPyhVptg1IIpNZe/FwLmyit0R8itP12muH17bnxfnlJ3XHUsVWmKgHClxA4U6FfJUcNsLMoB3dWZZfqi0rUEImTaQnN+NSNFP0h3xtsw83EMNvMOIdZcSFoWhQUlSSKggjWCNvqOO2LRuWlEnkJacnzqQtalpz0wzZrQkflnYDs0nWK3NuJOL8zFyc3gfiG4KIWXHIlZ/CxBP5FdnCRTersu5dmUXch9ylEE2wSKLd9c4v4SjpPY1b3MKAUkpUAQRQg7bX5wpl05S5FyQNy6PoTuaU0adPCB608I+Q2uDfq8OFF4XJfMGXnJdnnzTL3FUBro3Rs6gdA0jQR3iLuzmBvDJIObSp4PQUUjPbWPkIO8QQQRsIPqGMOM8FdBcRJ5IhMbPQiilVBahVHVnflK25vynZaBlF78UJmqYTCKdfbKjnRkUc1pOqoQkCmzUkAb9LXfwfkEvIXMlvTN0EGjh3NsEfopNde+T++CuxIoJIELJpe2RozhDozu+aVNnJLK3U5rktglitaKYQf1Wm2HF1pkk58qah1nUuFJapr2DRt3t6168Go6CQ7EXfivNzSanzO6Al0DeB1KPyWwxxsnN1YlqUXsS/HSxCg2Vu180Qo1bdKgPyTp3jstKZlBziWw8wlkQ3EwUQgLadbNQofv2EawdB9Swe6bTXZiOKrky/p+PfDX4g8lr2QcH/wARM/3hPMXK9kgju1E8Zz29lJdJ+c/Dh/HItkhdDM/7cRxORli/xR/rn7C2EHS3knxa/GK5E/kMtn8O2xN4bzQ02vPSnPUihpSvOkb9oSHahIVmGh05jLKEtoTUmiQKAVPAORlCdATfbrfFXbJJ6XEy7rOeJZ9TxUv1B3BuyuYRAS9GOncoSGzqF1dNu8kayewNZFpBJp3ileuMmUziV5il58VFKFQmuptA7GgDUAOxWQSOXSCBTCSqFbYaAAUUpGc4RtUdajwnmsScMoefBcwkiW4WZgEqbACW3/3K4dW/v2wGxQcudNHJFeV15MmeXmJLtawToNDoOkJOojYQDv15vFa+TVxrmxU2UjdIlRDEK3sU8oHNrwAAqPALYbXZib9XniZpO1uPwbbm7RTrmuIcUa5leHWaahvVFmm0MtIaaQlDaAEpQkUCQNQA2Dm8S7nM3skiktJQiaMDOhnToqdqCd4/UaHs5Nt+Xru3rF3Jo+W5VMFFCUO6AzE6M06dWdTNI3yne5vKDxIXcySNy2UOhM9mCSUKBFYdrUXKb5NQnsKPuaHCvD5y8T6Z3PwtUuKytCFklUSqukk/k1179mm0MtIaaQlDaAEpQkUCQNQA2DmsRrgwV64VUQ0AxN20HcnhoDlAaIXwV26x9VsGcQI/Dm8rknnDa0ymJfCIplw5ph3NCd1FdGqld8Abws04h1tDjS0rbWApKkmoUDqIO96jg902muzEcVXJl/T8e+GvxB5LXsg4P/iJn+8J5i5XskEd2onjOe3spLpPzn4cP45FskLoZn/biOJyMsX+KP8AXP2FsIOlvJPi1+MVzOUJ0BN9ut8VdsknpcTLus54ln1PFifxuI2KSoCCcDkIw+YGBCfWhIVRTmjXUgqrvAb1rsyWFu9JIWWwQ/BMpoVEUK1bVHhJ9Qx4ukhCE3jgW0pFUtxaUJpUk6HD36JPZFsnS+Tl6rjphY10LmEpKYZw00qbzfwajpNSQCK6KlJ5vKuvC7H3vgbvtaYeAZDqkgGqnXNP1JCaU/KNriyFu7l2IKXoA3RKc95VKZzitKj+rsAeo46yZcqvZDzeFq2mOTnhTfOlLqKAmtddM010beG2Gs/cvRcSSzh/ML8SwN2KNRcSSldN7nknRs1czGRLMHCPxUSsNsMIU44s6kpSKk/ILB2NxSxPciIxTgRFvFxQBruEOnUkb1BQdk122g4ZmChWYaFbS0wykIbQkUCUjQB6hj5dhD8A3eCGSfNDGazEADQpupoo0GsE0qdh4BbJjvgZ9cxUmjHiuPlBS2kKOlUOR+Dp8GhTwAJ3/UcHum012Yjiq5MHdibt4uuTtcJSWFSiHt0RtazRztc7Xwclr2QcH/xEz/eE8xcr2SCO7UTxnPb2Ul0n5z8OH8ci2SF0Mz/txHE5GWL/ABR/rn7C2EHS3knxa/GK5nKE6Am+3W+Ku2ST0uJl3Wc8Sz6lirOPOHDm8EwBUFohFttlKqELXziDXRqUoHf3rZPMrD8+mMyWgEQrIbQSNSlnWOGiSO/yJ9ehuUzZiXJl8dGxLzReSmGQFc6CRtI3rSS9ULM5kqXOQsbAR6UboGItrMK076dJra7s8h55BPRDDbjO4vKYcQ7QFKk0rWh4Ra614oO8kG9EwIcShp0tEOAAmgBro2Gtnb9QSZKiZog4x1lyMME0lASVOKoSFDTqNCN+0DfKEdmDMFMIGYyt985rRjGcxDh3gqpFeReCWNzmSR0ueJCIlpTdQaZpI0HvGhtkxTVcoxRMufqgR8O7DKQdjiOfHf5xQ7/N3uUJ1j/HIezVoVOgwoEaClDgQRTsJpw8w6iJvZemZQa46JhJTLCloohXChT7hFTnHeFCKWksvmsivA7DeaImNkDjG6JdiXAtbDgPranSRTg2jhrd+XxV9WHpzM5nMIaGddWmEhoR7c0toBpU76qj6u8LlxcdDTabSCZxSotUDmOMRDnr1tqFaK3yNGnh5OUDCJeubDRFOfh4tJr+ipKgR8ub8lslSLXE4YutLHOwswdZTproKUL+1Z5nKGmypThROC0pKXYvMhE12hahnAcOYFfbbJ1lgTBTaaKAqtxMMg7RmjOVxk/Jwcm/s5jJJKGH5cGS+7EoYG7JJSAqu8RvC02nV6LtspjpwzK4yWJUlLxhc9LiATSoztB1/wD6tea8EXDR8DKpEw1ETSMSXEl0kNtNj3aqad/5OwCmdz2STaBh7yogn4OOcDDcTCBSdzcOoKB2H/zyZzANzSUxkC8lKm4hpTRCtWkUrbJimLsrxVEvczk+boZ6GW2a+uQN036VG5qFeE7/AKjg902muzEcVXNNeyDg/wDiJn+8J5i5XskEd2onjOe3spLpPzn4cP45FskLoZn/AG4jicjLCZzoK6z9Fc45Eors54Nn5ed+22Dbgcw1kqk1oEOJ08Dqx+rmcodwIuLDpNarjm0j+ws/qtkptBvDJ9QSU7rMXVkn3XONiv1U73qWUmtSMIJulJoFuMJVwjdkH7QLZOqWxIpsofwpiUhWjYE6PtPIvQ7HNYlStUrh2oiJ8wLoh1zMTTOVXTaWvRz2JEI5eeHRBxQh1ogEMUUhwac6qq1qBXRT5Nsxjzd2JvxBoqFRCUREMBrKnedUR2CofJaHT6Bn5tCA5qH5QiIbNdBfQMwgcJJraaQHnbcS5sOU5q/PGHcUDrClhaj9tsT2WXrkTIvAfgwlaCfcqChSny079pO449KIF16pdWwhS675SK8jDkFrKBg0wxqEzV9IKU+5qsHRs0V7HN3gIlWUBGrcJSkT1S1Eq1JW7UnRsormJJGw93r5z+CmrqIVEc6mLhnXVZqF1rnCp0VqfqtB3jam943pVLUNxUC3D50RFtrqlKjUBApoPy7+9a4E4gpJKXJFOYpmBjZe6tJTELCAtJUVBSSdBBra57qZze+fTuHCjAlLcLDukUDmaOeI74Hy8nH58N3HbbzgC7FtpA36JUf1WyUYRTGGsS8pBHmiYurSoppVIQ2nQdoqlXfrzOVeHDhpC5igEiZNFYO0bm5+ulsAM30DvZtK+bXM6m/mo196nJxbCzd6CDRAcMe1mk6geepa8zE3dmspll6pg0qTRruapUI1mBTg0pQonSATT/IrZ3MhMWYcukJREystMbOeC6kDvA/LbFBQXLZXCoUBFRExZSyNtanT3q/XzGEyc/H2XiG9b5viCnQTzoS4fs9Rwe6bTXZiOKrmmvZBwf8AxEz/AHhPMXK9kgju1E8Zz29lJdJ+c/Dh/HItkhdDM/7cRxORlRyVyZ4bCMYbK3JbFIiFFKakNkFCtuqqkk6/W9kjJ2nCIm7UXKlqTu8G8XEprpLa9Nf7QVq3x3+YykZqFRMolLZ/g0qiXBXaedT9ivltgdKVybCu78O8nNddYMSoVr/CqLg7BooCnqWNsscm+FV5IVquemG80ADWdyUl2nfzKWydJjSKm8sVTn0IiU7+g5quMn/J5F45LOnr0wc4ka5cFMQxYKYwroakmtEjh37S+783i7wwk3vJGQa1waVCHh4NCghJUKEkq0/5Fry3SXN73SiapcaSxDACIQokKWEqzkgClDp11ItiBdRy8yZduDjba2HSHCskZzSqZwFAanQKWvxJI2cy6AalSoZt+Fi24kbuVBFEhQpzoJ1kWfu9PZ86y3eiMgBLm1hxULAJWA8RqClK007H/mwAAAAAA0AC0ZENwcI/EvkhplCnFkCtEgVP2WydYN2d4yQ0cs18zIfjXa1JNUlA0j9JxJ5vKmkjkqxEh5yySlEzYSsLTnAh1oBBodWhIbOjf1bTc+dN3hu3AzJsjOdbG6JBBzHBoUPlr3qcmPl8HMGg3HwrES2NIS82FgHgraCg4WBZ3GCh2YdqtcxpAQK9gWmEolsxWlcwgIWJWnQlTzSVkDeqRZlpthpLTDaG2kCiUISAAOADk5QM8ajJ3BSlghXmFKlukflrpzveAH9rgthXd9V18P5LKnW9ziGmM99Na0dWStYrwFRHe5nKFlZmmE85CCd0hQiKTvEIWM6ug+5zu/TZbJ1maDDzeVLWAtK0xLaK+uBGaogcFEfKOTeCSw08hGYeLW6hDTyX0logHOTWlag6NNrwyaFn0sXAx2eGlEKC2yApCgdBBIND++05u7BziXQ8LHLfU5D0LUUlYS8lQFM4KApU7dFOC0oufBwExRHxEXHzKMbFGnI17dNzH6OjkzqORLJRGx7lMyGZW8Qduakmn1WyYJYuZ4qJj1KA8wQz0Qon3SlDc6f/ANhPe9Rwe6bTXZiOKrmmvZBwf/ETP94TzFyvZII7tRPGc9vZSXSfnPw4fxyLZIXQzP8AtxHE5E8lcLO5PGyyYN7pCRbSmXU7c1QpUbxGsHYbTqV3lwivm6W0qbAKkMRCm85qKZJrTe2Co1gi3LqvR/Ny35hXlW5dV6P5uW/MK8q3LqvR/Ny35hXlW5dV6P5uW/MK8q2G9z55iffdqbTph9cpLwdi4taCltaUn+CQdROgJoNQ02SkISEpASkCgAFAB6k62h1tbbqErbWClSVCoUDrBG9aaQ8VhdivENKbVuUHEEoSk0D0MvVStdaSN+hGuotBRbEdCNRUG6h6HdSFocQahQPqGO150y2RpksM5SMjhVwDWlmun+0RTsBVslK6/nfdeNvDEtZsRMXNyYUoadxRtHAV1/sDm8Zrkejq5b0BDhtMzYWIiDWs0AWNBSTvKSSN6tDsthFfQXXmT0pnGe3AxDgFVmnmZwaCSDqB0A71Bw+oX+vVDXSkS4t6i4pyqIZn8tdNv6I2n9ZFsCbnxV+7+qnE2K3ICBeEXFOnRuztapQNFNJ0kbwpoqOajIZmMhH4WJQHGH0KbcQdSkqFCPkNolmKwnxTiGHm1PtQjikitAX4dY51QO/mkHRqII37QcSzGwrMTCuJdYeSFtrSahSTpB9Qx6vUhmDRd2DcO7ulLsUR7lGtKeyTQ9gDftkzXRcu/chcyjoctR82WHueFFBgD8GO/VSv6Q3vUbgpVKMbG4d0LSWo6JhlJUdNaOIoacNOauugTnKEhFMpBSZ2XhVWxtwrrXsJrzFyvZII7tRPGc9vZSXSfnPw4fxyLZIXQzP+3EcTkxEOzEtluIabdbOtLiQofIbecMn/ADVL/oyP3W84ZP8AmqX/AEZH7recMn/NUv8AoyP3W84ZP+apf9GR+6zTaGm0NtIShtACUpSKBIGoAb3qmUHh47fS7zUbKW8+dS6qm0V/h2j65sfpaiOwRtthXiC5d19Mkn5WmXBZQhawQqGVXSCPya696zTiHmkOtLSttYCkrSahQOog7RzV+75QF0ZdusT+GjHQdwhknSs753k75+21wLozvFi+TkXGqX5iS4lcdFkUShP82j9IjQBs1m0HDMQUIxCwjSGYZhCWmm0CiUJSKBIGwACnqGUBhG9P3DeK60MgzJKSYyFRoMQAKhaRtXsI91o2jTh3ibEyFYlV5t2dgm/waHCkl2HI0ZpGspFNWsfVaVzGDmsE3Fy2JaiYZY51xtVR2DvHgOkczfrEWVXXQthtYjZnQhLDSgQ2r/8AIa872Nf22u9d+9eL15y6SpTKVBL8WtOaxCor61I2neSNJ1nabXRu5LrqSGGlMnYS1DsjSQOecXtWo7VH/wAagObx9w1TfSRmZytqt4IFujQH/wDIaBJLXZ0kp4dG2owtxBcu075zT7dfO7PKUqUDnQqq6QRrza6xrBrZh5t9lDrDiHGliqVoUCFDfBHNYk3/AIW6cKYaHzYibupq21rS2Nil8G8NvBrtgxh7G4iXlXOZ6XXJMw8FxTrhNYpevcwd7VnU1A0FCRZKQhISkBKQKAAUAHqOO8rfuhjC7M4ZvNbiXW5nDqKRQrqCvUKVz0qO/pFa1qbvzeFnsnhZjAuJcYfRnc6a5p2p2aQajVzF/byM3WuzFzBxaN3CSiHbUdLjh1Cm2ms8ANsleQuzK/8AETlxKyxLYdR3TXV1wZoGn9EuHvDf5i5XskEd2onjOe3spLpPzn4cP45FskLoZn/biOJ7VxmwYhr3uOTiQKag54RV1CtDUVQbaal6ue1HbviUXnvVhvNFyqZQ7qUNmq4CLGgA7UK2cBFUneNpBi1duZ5qIxx6WvmgpEJqgngWmopwqpaBmcBHisDHQsSN9l1K+HYbOuIabU46tKEJ0lSjQDv2m987uSgf6dOIRCqVzG1bor+ymp22vZjOXGXYe7MK40s1Ai4gCo1aUo0jf18GjZa4GGN58SpgJpOH4mGlqiCuOiworeTp0Mg+u7OhI71LXXu/LLsSZiVyWFRDQjQ1AaVqppUo7VGmkn1LE7B2RX1K4xikrnKjnGKZRUOn/wDInRXsih7Oq09w8v5h5HLjIWHilMt6fNsuJcbKdfPACoGjTnClpXjJeGCo1MoeFjSk0UVILS9ta5ugHvbLM45IKfw8hUDQaURda/KjRaOxwi1ZwgZKw1oIBefK9Ow0AT8n12dvbfm+sSYOWea3N05ww8tZKRpJOkippQHWaUB4bYf5O8wiIsRF93UwkGkAiFhXgp1atBopQBSE7DQknZTQbXekctu5KmZbJIRuEgmq5raKnSdZJNSTwkk+o4wYNQF8t1mkmU3AT+mk0o1E/GACoV+kO+DopDTW9+GE4clsY26wEqqqEiQVMrH5SDqofyknTttIcY5FGoQiaNREufNM4lO6N1rsI0/KBaDvdd2MQFQ87lyqitFRCUqpwgkEa7LvJI20lS5zLUpGsmKQB9tpxibdaWI/GIi3KVDcKkuE6N/1v12vVjHM49BYkLAlzRFFPLIW6exsT8hO2othjgbOLyPMTW9RXASpwh7c1Gr8Sk6f6AO+rTwbbSuXwcpl7EDLYZqFg2E5jbLSc1KR2Pr9SxWw+gcQJCIWIVuEfDZy4OJ17mo0qCNqTQV7AOyz2CWIsI6tqGlYdbBPPsRzSUq2VopYOzaLcpvEz8zveEGPvLcpvEz8zveEGPvLcpvEz8zveEGPvLS3Aq/0yjG2plCNQLFRV6Ii23AkHWQEKUSfkth7c6XXHu2zKZYCuhz331ABT7h1qO9vAbAANOvmLleyQR3aieM57eykuk/Ofhw/jkWyQuhmf9uI4nta8N3pReOD8yz2XQscwK5oebCignQSk60nhFDa8+TbKYlSnbtzeJgFEk7hEoDyOABQooDs5xtMMnW+MOukM/KotGjSh9ST3wpIsnJ+vwpQBZl6QTSpihQfVaRZNU4ddSZ7O4CFZqCUwiVvLI2jngkA8Onv2uXgrdC7DrcSYRc0jkAUejyHAlW+lFAkadVQSKa/VpxdaQTolU2ksujFn3b8MhatZOsiu0/KbKweuEpRUbuQ1Sa6HXAPkzrQOF1yIFQUzdmWqIBH4Zrdhp4F1tDQ7MKylmGabZaTXNQ2kJSNNdAHqk3lMunMIYWbQMLGw5/2cQ0lxPZoRrteXJ1uxMVOuyeLjZS6skpQCHmknR7lVFU1+622jsmqfoUrzBO5W8mgoXkuNEnbqCrMZNt6y6kPzSRoarzykOuqIHAC2K/LaRZM7CVBU+vC64mulqCYCDT4aieLa5+G91boprKJUz5oJzjEv/hXddRRSvW6hoFNQOvT7WuV7JBHdqJ4znt7KS6T85+HD+ORbJC6GZ/24jie9O5XskEd2onjOe3spLpPzn4cP45FskLoZn/biOJ707leyQR3aieM57eykuk/Ofhw/jkWyQuhmf8AbiOJyIl9qFhnYiIcS2w0guOLUaBKQKkngpa/N87xYrXsVLpYp8S1bmbDQKFlLeYDoccGonaSdWoW5Tl7P5mD+kC3KcvZ/Mwf0gW5Tl7P5mD+kCysHb2hJIYhCQNQiBpthxf+e4ZXtTKZ+5EqlDS9yioJas8NA6nG96lQrRoUOyCGnEOtocaWlbawFJUk1CgdRB3veDPsRroyCNXBzWfwTMUg0W0lRcUg7ygkGh0ajwb9uXHcHrjh/mXfJty47g9ccP8AMu+Tblx3B644f5l3ybNYv3CccQ2m8kKFKISCptxI075KaAcJtBRcNHwjUVAxDMTDOjObeZWFoWN8KGgjmLleyQR3aieM57eykuk/Ofhw/jkWyQuhmf8AbiOJyMpadqlGFsWw0soemLzcIkpNDmklau8UoIPwrZOEoS1KZnN1hJcfdEMjRpSlICjp4Sof2eZyj5I2hUsnbSM1ayYV5Q1K0ZyO/wCv+retgJOVzrCuSuvKUp+HQqFWVaf4NRSnTt53N94GO99VXMuO85BO7nNY4+ZoQjWgn1yx8EfWU2uBhpH30g35nFTDzHDKWQh1bZdW8uvPGmcNFdtddbcoX/eT/sf/AGW5Qv8AvJ/2P/styhf95P8Asf8A2WjsCYhqDeXBz1EREJSS20uF3MLO9nZ5p8lsnS+kbdq+foUnLq24CMdUwllw6IeKrQU3s4gpoNpB5i5XskEd2onjOe3spLpPzn4cP45FskLoZn/biOJyMr6IKbvXehtNHIpxzVo51AH+O2CDYRhpKlCtVqeUfnVj9XM5QDSXLgFShpbi21J7PPD7CbZJToVh5MmiolSJo4aHYC01T6wfeBlazRcTfeWS0LJZg4LdM2ooFuKOd9SEf513JlaJLdKUy9AALMOnPptWRnLPfUSeZxmhlyDE4x0Icxx0NRzZrXNWDSv9pBPftLItEwlsJGNCjcQ0h5IrXQoAjT3+Tcr2SCO7UTxnPb2Ul0n5z8OH8ci2SF0Mz/txHE5GWD+LbsfGxH2Itgn0sZN/zvHOczj50vXu2WvtNskboKnPdD9mj3gZSCS/jHHNFRoW4dArpzQW0/v5rKRbpeKUuV9dCFNOws/vthwtTuHt13Fmq1yuFUTvksp5NyvZII7tRPGc9vZSXSfnPw4fxyLZIXQzP+3EcTkZYP4tux8bEfYi2CfSxk3/ADvHOczj50vXu2WvtNskboKnPdD9mj3gZQ/TrjOxDeLTzWUl+PJN2svjWw06XF1O5MJ4lPJuV7JBHdqJ4znt7KS6T85+HD+ORbJC6GZ/24jicjLB/Ft2PjYj7EWwT6WMm/53jnLLWltClrUEoSKlRNABvm00xUu7AxCmWjFRhSaFcO2CnvFRFe9a699pLeR0swD60RIFdwfTmrI3xrB7x5GPnS9e7Za+02yRugqc90P2aPeBlD9OuM7EN4tPIvBPpbd+E80TSJSyk6EJ1qWd5I1myMXLvKfzCzMEo/nC0mn1Kr9VpVMYSbQTcXLn0Pw69S0/Yd48B5GUl+PJN2svjWw06XF1O5MJ4lPJuV7JBHdqJ4znt7KS6T85+HD+ORbJC6GZ/wBuI4nIywfxbdj42I+xFsE+ljJv+d45y2KENNY26q4OSMOPPRDqUOBtQBDdCTrOqoA79rg3QgZPd+G81wDKpi6gLiFOoClBR9zwAatFsQ5dD3fxClD8lQlh15TbxZa50BWfTQBqCtVOzyMfOl692y19ptkjdBU57ofs0e8DKH6dcZ2IbxaeReO680vJiY0uYwjxkDRSkLzhm5gRnEa688rRv6bTG7EljJW5Auy+FbhygpBQ2lJb0awQNBFsA3nQ9OoYKK4ZO5rGnQFc8KjsgfUORlJfjyTdrL41sNOlxdTuTCeJTybleyQR3aieM57eykuk/Ofhw/jkWyQuhmf9uI4nIywfxbdj42I+xFsE+ljJv+d45zkXknkHd6VOx8euiEaEoHrnFbEp4bXAlkbe+9Ll7JyikM0usOjYVD1oT+inf2nv8jHzpevdstfabZI3QVOe6H7NHvAyh+nXGdiG8Wnk4p3vUwk3ekhU7M4qjbpb0lsK9yP0jXvA8NsOrsC7EgSw7mmNfO6xChqCtiRwAfXXkZSX48k3ay+NbDTpcXU7kwniU8m5XskEd2onjOe3spLpPzn4cP45FskLoZn/AG4jicjLB/Ft2PjYj7EWwT6WMm/53jnLTeZQsolz0dHuhqHZTVSj9QG+TvWhVO4k3mMZNohEHI4VVENKdCSR+SP0joqdnyWhYuVQsO3Dw0TBtMtpCEIS4kBIGoDTZCkrQlaFBSVCoINQRbHzpevdstfabZI3QVOe6H7NHvAyh+nXGdiG8WnkYmX2RdyDMHAqSubPJ50awyk+6PDvD/Jw0u5AyhJm86jYZ2cP1VRbyVFkHXprpWa6T3t+rMdCPuBDMUw4s6kocBPycjKS/Hkm7WXxrYadLi6ncmE8Snk3K9kgju1E8Zz29lJdJ+c/Dh/HItkhdDM/7cRxORlg/i27HxsR9iLYJ9LGTf8AO8c5a9EhhbySpUvjnHm2StK85kgKqOyCLcp+QdWTT51vyLcp+QdWTT51vyLSuCblsthYJhS1NQzSWUFZBUQkUFabdFsfOl692y19ptkjdBU57ofs0e8DKH6dcZ2IbxaeReXDqUXhm7sxjYiPQ+4EgpaWgJ0AAa0k7N+3KfkHVk0+db8i128OZRd+cMzKCiI9b7QUEpdWgp0gg1okHbv8jKS/Hkm7WXxrYadLi6ncmE8Snk3K9kgju1E8Zz29lJdJ+c/Dh/HItkhdDM/7cRxORlg/i27HxsR9iLYJ9LGTf87xznM4+dL17tlr7TbJG6Cpz3Q/Zo94GUP064zsQ3i081lJfjyTdrL41sNOlxdTuTCeJTybleyQR3aieM57eykuk/Ofhw/jkWyQuhmf9uI4nIywfxbdj42I+xFsE+ljJv8AneOc5nHzpevdstfabZI3QVOe6H7NHvAyh+nXGdiG8WnmspL8eSbtZfGthp0uLqdyYTxKeTcr2SCO7UTxnPb2Ul0n5z8OH8ci2SF0Mz/txHE5GVzCuOXNk0UkEtsx2Yqg1ZzaqH/p+u2BEUIjDmDaGbWGedaNDU6VlenePP8AyU5nKGiQzcdhmpzn4xCaU1gJUf1C2SnCuQ+GT7qwQmJmLrqKjWAhtH2oPvAyiSE40xqlEBITDEk7PwaeaykVg3hlLemqYVSj31n91sNOlxdTuTCeJTybleyQR3aieM57eykuk/Ofhw/jkWyQuhmf9uI4nIxnu6u9GG84gIdOdFIbEQwK0qts51OyQCnTo09+2T5eiHl8ZGSSPeSyiKUHodS1UTugFFJ3qkUp8Gm9zOOt52p9eKHlkuWl6GgKpz0ac91VM4A7QKAdmtsL5AbsXBkkqcRmRDUOlT6aDQ6rnljRropRFeD3gZVUuchcSWospG5RkE2tKgKaUlSSDvnQO8RaSRqJlJoGObUFoiGEOgjbnJB5nKCjBGX8ahWTnqhoVtpSUipC1FSqfIpNruQBlV3pXLiQTCQrUPoFBziAnVs1cm5XskEd2onjOe3spLpPzn4cP45FskLoZn/biOJycUsAImZzuJm1z4mFbTFLU69BRBKAlZNSW1AEUJJ500A2GlAPS/356ngPpQ/db0v9+ep4D6UP3W9L/fnqeA+lD91vS/356ngPpQ/dbCHAlyRTduc3wXCxEQwQuFhGVFaULGnPWSBUjYBUba+8HKqus5NbpQk9hGwp6VLIeoOeLK6AnhzVBOjYCo79sHsR5ZLbv+c94IpUMYUksPLSVJUgmuboBNQSe92Lcsy5/wCe2fm3PJtyzLn/AJ7Z+bc8m3LMuf8Antn5tzybR2Kd0oaDeebmiYhaEkpZabXnLOwCoA+W2F0njcRcWGIuNb3RhMQI+NUU1QEJVUIPAaBAG92OYuV7JBHdqJ4znt7KS6T85+HD+ORbJC6GZ/24jie8l1tDra23UJW2sFKkqFQoHWCN615MnKQzGYuRMomcXLG3FFSofc0uoSTsRpBA4CTb0ssH1zxH0MeXb0ssH1zxH0MeXb0ssH1zxH0MeXZOTLBBQzrzRJTXSBCJBI/tWuJcuTXIlBgJEwpKVnOefdIU68rYVKoO8AABpoNJ5i5XskEd2onjOe3spEVwfnXAuH8ci2SER6Gp+NvmtHE96dxfwuUe2UaQZzEqHYq4fb2USjPwcvBvgMH/ALhu2SAqsmvIjeiGT8qVfu96eCX+m4+QLx0gxMW8T/ynSPrI9vYzwnm3Cu8zVK5sGp3+xRf+G2R9F5sdeeDJ9e2w6B8ErB4w96T7gZYccVqQkqPeFsmNsvYswzh0luGfWT2U0/xe3r2Qnm+605g6V80QTzVN/OQR+u2SdF7jiLGsE87ES5wAfpBbZ+zO96V7opMDdSdRbhohiCedJ4EoJ/VbJNhlO4ixz9OcZlrlTvEuNgD7fk9vEAgg6QbYEEyfHKCg1HNSHYmFVXgQun1pHvSx+mPndhLP1hVFvNoh0jfz1pSf+kqtkgS6kNeSZKT69bMOg9gKUrjJ9v4hA3Kx/iI5IKWmZk1MBT3SFlLih2NKhYEKAKSCDpBHvRytpjuFyJVAJVRUVHBZG+lCFV+tSbZL0u8xYVsRFKGOi3oiu/Qhv9n7fyupTuF5pJNkpomLhVQ6iPym1V095wfJbCqbefmHN3o8qzlrg0IcVvrRziv+pJ9rYyY5Rcrn6JVcl9giEURFxSkJcS6vRziK7Bpqdp1UpU4S4iQN/wCRB5G5sTZgARcID6w/lJrpKD9Wo759rX6xqu5dG8iJM+3ExkQhSRFLYAKIcHYdNVKA00HYrXRaWx8LM4BiNl77cRCPoC2nWzVKknaPa2NeNCrozFuTXZRCRUySM6KcdqtDGqiKAiqjprvaNZOjCTEWBxAke6pCIabQ4CYuEztR/LTtKD9R0HfPqWVtOUxd7pTKW1VEBClxfAt0jR/ZQk9+2GUqVJMPrvy91OY61BtlxO8tQzlD+0T7fyqJR5uw3bjkJquXRbbhVvIXVB+tSPktkoTlMZcONlanAXpfFkhG1LbgzknvqDnNzKYwUrhTEzOMhoOGBoXYh1LaAeyogWexeuG0oJVeSEJpXnELUPlCbcuO4PXHD/Mu+Tblx3B644f5l3ybcuO4PXHD/Mu+Tblx3B644f5l3ybcuO4PXHD/ADLvk2YxeuG86ltF5IQKUaArQtA75KQB37SecS2dQvmmTzCEjmK0LkM6lwA7xIOg8HNZRuKKZZBuXXu7Ff8AyT3Oxz7StLCP5sEe7Vt3hUazowrwvZmUu89rxoUWIloiGhwc05qhTdD8tU9471pjCzvCW/MPFy6IWADnsPakxDVRnIWPqI7BGw2w/vlLL73fZmcrWAqgS/DlVVsOU0pV+o7RzWIGJd3LjozJrFF6OIBTBQ9FO0IJBIqM0aNZtG5TZ3UiCuuNyB0KejdJHYCNHym3pmozrYh/ph8i3pmozrYh/ph8i3pmozrYh/ph8i3pmozrYh/ph8i3pmozrYh/ph8i3pmozrYh/ph8i10soi7c1iEw87hImSuLNEuqVuzI7KgAoaf0abSRZh5uIYbeYcQ6y4kLQtCgpKkkVBBGsEbeax/xOFz5R50yWIT6IIseuSQTCtbVn9I6kjsnYK3Vw3nN6ZJGTgOhtSgVQwePPRS689pOoa9J1nvm2A2J7ly5kq794itEledIznK1gnNujYkn1w2HTv1acQ62hxpaVtrAUlSTUKB1EHe5t69EgZUEvTyVtqIrRcW2DT5bei27fXBKPprflW9Ft2+uCUfTW/Kt6Lbt9cEo+mt+Vb0W3b64JR9Nb8q3otu31wSj6a35VvRbdvrglH01vyrMPNvtJdYcQ60oVStCgoEcBHNY+4npudKfOqTPIM/jEkVBqYVsj15/SPuR2TsAOF+HDl6M6cT9TyZcsqKBnEORCtNVV3gdu02mcHOcJr9Q0ZL31UQouQ73uX2tSkKH1EdgjYbYf3yll97vszOVrAVQJfhyqq2HKaUq/Udo9SaHLIx7r/CwsbMq79YZr/1o/kC9UmZvDduZSiJoG4yHWzUj1pI0K7IND3rZPE4euriv50x9WkxufL3kKPrXknne/nJzf6XNYi3shrlXSjZ1EoDqmgEMs52buritCU1+s8ANoeEvli9P3Ylx0xa2iAt15eYxDJUTQAbBo1JBO3hszk8OFpJevKhDlOeSiBzgOwd0Ffkt6Xf/AHo/+v8A/bb0u/8AvR/9f/7bel3/AN6P/r//AG29Lv8A70f/AF//ALbel3/3o/8Ar/8A22cyeFhBLd5kqVsCoCg+XdDabSO92Ek8ho9iJLOcaNRcKoqac25iwQNnuVDsVpbCi/MNf66yJi2gMxjStxi2BqQ4ACSnbmmtR3xsPMY8Ynt3Mk65bJ30G8cUkBAFFeZkHW4ob9NCQdunUKHCS4C7xxIns9zly5LhUhDmkxSwdJNdaa1rvmo37JASkJSAEgUAGy17rtwN6ZM5L5ik0Jzm3U+uaXsUP3bbXbnM8wev8d1TujYomJh0ro3FsmtCDv7QdYOg7Qbsz+XXmksPNZNEJiIN8VChrSdqVDYobRzGJF5RdG5M1nWaFOw7VGUn3TiiEo72coE8ANsNrnxuJl5Y6MnEa/5mbUHYyKzgXXFqrRKa10mh00IAHYtL8L7mwLLaG5FDOlA9e/V1SjvnOJ/db0AXS63ZX9HT+63oAul1uyv6On91vQBdLrdlf0dP7regC6XW7K/o6f3W9AF0ut2V/R0/us5h7dFxBSq7stAP5LAB+UWxMwYly5U/MLpMrho1hOeYTPKm3UjXTONQrbroaUpprbJVvvEuRETdKYOrcZS0YiBJFdzoefRXeOcFDYKK3xzOMmIkNcG7qnGi09OokZsHDKNdO1xQ15o+s0G+Rh/dCYX/AJ6/OJ4865A7tnxL7ijnxC9ZQD9p2DVaGYahYdqHh20tstICEISKBKQKAAbwFsZcP0zWHensnaPnk0nOiGkAnd0gawB7ofWOG2Ttiu3BIZupeWIzWCQmAinFGiK/7JRJ0J/JOzVqpTmLwTeDkEljJrM3dyg4RsuOKpU0GwDaSaADfNr43+vZirPzKpOh9EA4smHlzBCedoQVOL0V0E1qc0VtCYB3ldaCoiOlTCiPWbotRHZomnyE29L/AD786yv5XPJt6X+ffnWV/K55NvS/z786yv5XPJt6X+ffnWV/K55NvS/z786yv5XPJsrJ/vBmnNmsqKqaAS4BxbLhr84STRuKbW/AtuLoFtLDkPEU2KGo6K6FAGmqlsJMQYTEC73mptKWJlDZqI2GFSG1GtFJr7lVCRvUI2V5jGLESFuFd5TiFNuzmJBTBw506fy1CoOYPrNB2LgXQmGIE9iJrO331wW658TErJz31nTmpP2nYKcFoZhqFh2oeHbS2y0gIQhIoEpAoABvAWvbdyBvRJnZfMEc6rnm3QBnNL2KT/nSKi135tOsIMQSVguIQQl9lKqIi2CdBGumqoOsEU3xa7M/l15pLDzWTRCYiDfFQoa0nalQ2KG0eoYtT30OYcz6YJVmvJhi0yQdIcc5xJHYKge9bJIkXmm8c3nbqaog2BDtk/luGpI4QlBH9L+QcoqTPXWxVTN4CrSY7Mj2VpHrXkmiu/nJCv6Vrqzlm8N25ZN4egbjIdD2aPckjSnvGo73M5YMU4iAuvCAncnXYh1QroqgNgcc2wLhWYXDCTllASp4OOuHapRcUKnvADsAeoYuwTEdhxPkRLYWGoZT6N9K0c8kjvj5Ki2SBFOpm144QK/ALYZdKf0kqUAfkUfq5OLmIcDcKQLdUpD03iElMHC10qOrPVvJGvh1di4N05hiJeCLm87iHVwm7FcVEK9c84dJQnYNlaagRwWg4ViChGYaEaS1DsoCG0JFAlI0AcnEO5sJfCUFlyjUeyCYZ/8AJUdh/RNBX5bYVX5mOFt7YmXTdpwy1x3co2GJJ3JQ0bqgaiaf2k04CJbHwszgGI2XvtxEI+gLadbNUqSdo5OU+pScKYkAkBUUyDQ6xnV/VbJf6EZr29+zT6jgAotY4SpDdEoUuKQQBopuLhp9Q5jEW+cuuPdt+ZzFYU5Qoh4cEZz7mxIG9tJ2C0nlk8xXvjFTCZPqzVLC4mI9yyjY2gHg0Ad82k0shZNK4aXy9sNQsOjMQn6yTvkmpJ3zycasP0w4evFJWiG1KKoxhIJzSf8AaJG9v72vftk9YqonkIxdm8D5892U5sK+sk+aUAVoSfdgA9kDfBrycqyMehsMmGmlAIipi0y6CK1SEOL73PITbJplEND3PiZoG0mLi4hTanNoQilE8Gkk/J6hfKUQ08uvM5fGNpW28wulfcqAqlQ3iDQ962SbGOM4hR8KD+CiJesqGj1yVoIP1qHf5OIV85bce7zs0mas9XrWIdKgFvr2JHBtJ2D5LSeXTzFe+cTHTJ9WapWfExFDmMorobQNm8BwV37SaWQsmlcNL5e2GoWHRmIT9ZJ3yTUk75stSUIUtaglKRUkmgAtd+/Eon81VL5cYhTyUqXnKbokgHWDXhtiDc2DvhKtxeIZjWQTDxAHrCdh30mgrbC6+0ywsvi/L5ul7zsW7ucdChVQg6AHU8IFDo9cNG9SWx8LM4BiNl77cRCPoC2nWzVKknaObytb0BbsruxDqB3P/TYmmxRBS2PkKzThTbJ/uwq7GG0CmIRmxkeTHPAjSnPAzR3kBOjfr/IOU7dhU8uAJjDN58VKHN30DTuJFHPk51R4Em2Sle5EZI4u68SsCIgSYiGBPrmlK54f0VGv9Pg5nLF/ij/XP2FsFelfIfil+MVyYh5uGh3X31pbZaSVrWrUlIFSTaIvDerEmeREFdl5cvlDJopxKy3RJ1KWoaSTQ86P/NsO7lxN1HI16Mmy5g7FJQCFIICM2u0qNdfBycT+l5ePtF3im2SF0SXg7Ub4/IxAvlLLkXfemc0WCqhSxDhVFvuU0JT+s7BaWQU7xZvxFR0weVmqUFxL9OdYb05qEjsCgHASdptI5TBySVsS+WtBqGZTRKdZO+SdpJ08i+t4WrtSF6NXRT55xhs+7WdXeGs8AthFeCbTW9MQ1MZhERLXmVawhxdUhWejSB3zyMVrhtXql6oyCSETmHR+DVqDqRpzFfXQ7/BbAXE9VzJiu7941OIkzzhAU5WsG7WhqDqSTXOFNB079WnEOtocaWlbawFJUk1CgdRB3uRlQdKl/ttn7TbJf6EZr29+zTyMRcSIa60QJdAsCNmygCWyaIarqzqaSTvD6tFbkzTEGaT+DencA3CyVQUp0bmlsgZhzdBJX67N/XzWAnT0lHxsV4h3k3pvBLrsSOKm04fDMIwmp1ZyzsSkbVHUBabzCfYwX9Us1SlRIbRp3KEYH+dJ2qPYtdK70FdeSMy2Xg5iTnLcV65xZ1qPDoHeAGzkYx3oW0gSGWrVu6xusUps6UpAqE6OAVPABv2wOdcduxGl1alkRihVRr7hFlAKSUqAKSKEHbbFm4y7qzBudSHdGpetwK/BkhUK7WooRqTWlDXQdG9bA3E9i+8qTL5itLd4YRv8MjUH0DRuieHVUb53jycrbpcS3us34l62Tr0tWe2XftHIiHmodhx59xDbLaSpa1mgSBrJO9ab4xJcj1Qd15Q9MlCtHFZwzuFKACSOE07FrmTKYza70PGTmBMBGuFWcwUKQUgKIGhWnSKHmJh/qET8Ur7DbJU6Zzvc93jI5F5p/LrsyWIms5iEw8GwKlR1qOxKRtUdgtOphPcYL/rWkKQ2okNNkktwbAO3h1VPulHsAXSu5A3XkzUvl6OdTzzjpAznV7VK/wA6BQcjFmfvFLN2pRVyPjiEuhGsIOpPZVt4OzbCuBVLMSIuBcWFrh2nmlKA0EhQHIxUuE1euBMVBJS3OWEUbUTQOp15ivrod/gtgRia7cmbOXfvGtaZK86U1cJ/0J2pqafkk+uGw6d+rTiHW0ONLSttYCkqSahQOog73Mx8WxAQMRGRbgbhodtTrqzqSlIqT8gtdSEfxYxpMRGoUqGiYlUXEpOnMh0Uog94IR3xYAAAAUA2fyC+03EMOMvoS404koWhQqFAihBG9acQ8Zg9jEHIYLVDwrweYBP8PCrrztdvO5ya/lJraWR0PM5dCx0E4HYWJaS80salJUKg/IeYyxf4o/1z9hbBXpXyH4pfjFcnGWNXBYeTMtEpW9mMVG8pQzvlFR37Ydzu9aJF523Lk7LmYtS4mKWkc8snRzyiEiiaCmk2uviVN4W8rcivtAtwrziktpeSnMKVHVnCpBSd8f8A65GJ/S8vH2i7xTbJC6JLwdqN8e14JvCSGSxk1mS1Ig4RsuuKSkqNBvAbbXim86xhxCCkI3JtXOMMlVUQrA1k752k7SaDYBdG7cDdaTNy+XJNAc5x1XrnV7VH92zkLUlCFLWoJSkVJJoALIz8SL95xzvOCXHRsCxX7Vkf2Rv2w4SE4r3gSkAJHmkADUBuyeTjNcBEzhX59KW6TBlOdENpH8OgDWB+UB8oG/bJpxMc3WHubOVOOhVRL39KimgJLSv0aDnd7VvUtlQdKl/ttn7TbJf6EZr29+zTaKfRDQzz7mhDSCtXYAqbXIvTKpfeSZXkvGh+KmCl50Oy2nO55ZJUqp0DNFANPutA0aJFjJIphGoh41iIl+eaB50pU2N7OI0j5KWBBAINQeZwE6eko+NivEO8iZR8LLIB+NmD7cPCMIK3XXDRKUjabYk3wmmLF9mYOUtvedyF7nAwp0UHunV00AnSSdg0bCTh9c+FufJvMzKg7FvELiX6Uz1DUB+iKmg4Tv8AIvjP2btyJ+Oeopz1jLZPr1nUOxtPADa7MgeXdG8V5pvVyOjYN8slesJKDVXf2cHZtgV0LRvbquIjkR0JDx8I9CxjKHod1JQttYqFA2vtd2Y4a3tg5rJHnUQwdD0HECpLahrbXsO3QfXJrXbbCfEKBv8AyERDWazM4cJTGQv5Cj7pO+g0NPkPIytulxLe6zfiXrZOvS1Z7Zd+0cjKDnTkFd+ClbCykxzilO0OtCKaO+VJ+S10r13JuRLGZe1El+OoPNcSwwVZy9Z57akahStrvz6W3ggfNcoi0RLNc1VKgpO8pJ0g9nmJh/qET8Ur7DbJU6Zzvc93jItHRbEBBREZGOpZhodtTrritSEJFSTwAA2xNvhMsVb8swMpS6ZclzcYCGJIBHunVjfIBJ/JSKbCTh9c6EufKNwZIdjXaKiIilCs7w3kjYO/t5F6Z2xd6SREwiaHMFG0V0uLOpP+dlbYUyR+Oi4m9c5quKiVK8z5w1A6FLG9+SOAHgtcvpyTv4URxxycY8PUzeHenkma/wDkmk50Q0n/AG6ANYH5YA744aWybcUFNuw1zp6sqbWc2XxClElJ2Mmuz8ne1bRTmMqK+CJPdFF34V2kfNT+EAOlDCTpP9IgJ4RnWyVLq+dt1Yq8MSikRM17mySNIZQSK99Ve8lP8h5TtzfP256Z5Bt50fKKrXQaVw59eP6OhXAArftkrXzEbJoi60c8PNMES9CZx0raUaqSN/NVp7CuDmMsX+KP9c/YWwV6V8h+KX4xXJxyYU9h5GLTX8C604exnhP+K2DDsO7h3LPMwQlSC4l0J154Wa14SKHvi2Ue2ymLkLqKCLKXkqI1lIKM2vfKqdk2Yzyw3utN0zRnU36aeRif0vLx9ou8U2yQuiS8HajfHtMoGGmcviYGPZS/CRLamnW1alJUKEWxGufN8J76NRktcc8wLcLkDFaSCmv8E5sKgNBGojTtoMP72wt75IItkBqKbIREsfzauDfB1j/xyMabwPS+VMyuGqlUcFF1f/4xrSOyT8ld+1zL/wAku3ImYFuXxqnvXvuDM59Z1nXq2DgFrrXuhZPfWZzl+HfWxF7tmtopnJz3AoVqabLSmORM5XCRzSVIbiGkupSrWARWh5GMmI3+sXekTv6EXEoV8raSPkJ7I37ZOGF4lUI3em8EMUzJ4VgmXBQsNkUzyPylVNN4cJ0WyoOlS/22z9ptkv8AQjNe3v2abXnStd25shrS4qEdCezmGlsnySS6LExmcUyh+Nh3EttboKhsEVzgN87/AAcJtjxIoOJukubbkhEbCOIo6kAKWlSgkpJ2jSD3uzbCiOdmGH0nfiFKU4G1NFStZCFqQPqSOZwE6eko+NivEO8jFu6Lt9rjRsohX0sxZKXmFL9YVpNQlXAdIrsqDppQ4ez1VwL4vsz2ALVT5mic9v8ACw9DrHBWlQNY39FmHm4hht5lYW04kLQpOpQIqCORiaqcTW9wQqUxsTLIJSUobbaXmuDQVHOA26q7KWnV953ESGNgnLqxELDOQ62i5mrCWklJFfWgUAthVeKYy1lMvhJO9Fw0RGJ3SJSFUazglJrQEaAK6+TjnfOBal713IdtuJjXM0vKUARDjWKfpn6gbZK9x4yDD97o5TjDUS0qGhWdW6oKklTh/RqkAb9CdVK2ytulxLe6zfiXrZOvS1Z7Zd+0cjKGbU7P5E0SEoW0pIUdQJWK/qtKcO7sy+VJglyqGijm0W++2FOLO052tPepa5zCrnY1PySFdUYGIJborTVJb3RHfBoK9nf5iYf6hE/FK+w2yVOmc73Pd4yLR0IxHwURBxjSXoaIbU062rUtChQg8BBNsSLoTbCi+rMZK1uiXqXukDFa6ja0s0ArTQRtBrv0w/vfCXvkwiWKNxbVExMPWpbUa0PCk0JB7I1g8jEG57t7BBJRMPMrcPnkpLZWFE0odY1UPy2aw0nDTaW2r1xKG0AJSlKVgADYBn2kN3I2NvzHylmbOw8Uyp0Ki052cvNVQ7QdPZtJIN2XyiEhIiIVEusthCnlVqsjbpJ5GL+IgkjTslkrp89Vpo88k/6uk7B+kR8la66WybMMTEvsXvnjS0stKzpcydG6KB/hTp1A6htOnUBXkziZQsnlUXMZg6GoSFaU66s7EgV754NtoJmZYzYtKU7nttRLme4RpELCo2DhAoOFSuG0ugoeWwENBQLSWYWHbS002nUlKRQD5P5DdbQ80tp5CVtrSUqQoVCgdYI3rYnXYmGE2IsLM5EpbcEtwxMvd0kJp65pW/StDvpUN82w/vXB30utBzmAISHRmvNVqWXR65B7GzfBB28nLF/ij/XP2FsFelfIfil+MVyZjBMTGAiIOLQHId9stuJO0EUNoO7F+7iR8S3dgImEteVUAlJB3ipBIIVTaNFpDcS8V4b0tT2/akIQwUlENnJVngaUpokkJTXSdp079eTif0vLx9ou8U2yQuiS8HajfH5F7buy+9Ugi5RNmQ5DPppXahQ9atJ2EHT/AOLTSAvBg9fotrosAc45mkNRjJP+ajWCNu26k/g7yyRiZS9R3NzQtB1trGtJ4R/5sttC6Z6Eqpvittwa/mkf2Ra4knjYfEyeREXLohqEX5o3N1xhSW1VdBFCRQ1GqlgAAABQDZbGDEPzhbck0nX/APKuI/Cug/6ukjRT9MjSN4EHetk6YXeer6L13lh1Kg2150Cw6mofXtdUDrSDq3zp1DTyMqDpUv8AbbP2m2S/0IzXt79mmy0pWhSVgFKhQg7RZtczwjvfGL8xuRMhizRJB0KRUlPPagtNSKHXp3wbXvvlMMSBDyK7criEsqWHHSsglRGrOI0JSNdSddO/daUIkN3oCWIXniGaCCulM5WtR75J5nATp6Sj42K8Q7ycf8L/AEXy3z4kjKfP+ERQoSNMU2Pca6Zw0kHbq3qYQ3+dkcYi78+UpECpe5tLcFDDOE+tVXUmtdeo8Faci88K9G3cmkLDIz33oVxttNQM5RSQBU6NdsJ5HMZDIIqGm0P5neXElxKc9K6pzEitUkjWDyMUr/M3TgTCwZDk5fRVpOsNA6M9X6htpvWwGw0Xfebuz+8KVLkzDpJSutYx3WRX8kGhUdtab9Gm0NNobaQlDaAEpSkUCQNQA3uRlbdLiW91m/EvWydelqz2y79o5GOt2X51IIeYQKFuxEvKiptIqVNqpnEDaRmg9itruYxycyJrz7ES3MmkBLiUN5wdIHrknUK7xpS2GsPG3vxLi73RDCmYJoqKKjQolG5pQDtITpJ3wN/mJh/qET8Ur7DbJU6Zzvc93jI5F67vS69MiiZTOWd1hHxQ0NFIUNSknYoH/JGi03l8+wfv6pBqpKSS2vTuUWwf86RsUOxa6k/g7yyRiZS9R3NzQtB1trGtJ4R/55MrufL5deaKnjD0UqLiCsrQtSSgZxqaAJr9fIxRv8xdKD8zQma9OH0VbQdIaTqz1fqG22BOGzt+Z27P7xpcdk7LpWoua4x6tSkmtaAmqjt1b9Gm0NNobaQlDaAEpSkUCQNQA3uYyp79hxbV0Ja8ClBS9MFIPutaGj2PXH+jvG2TxcX0JXQTHRzWbN5oEvOhQ0tN+4b4DQ1PCabP5FxIufCX3upFSiLzUOqG6QzxFSy6BzquxsO+CbYRXujcLr/RUovAlbEved8zRzStIZWDRLo4BXWNaTXTos04h5pDrK0uNrSFJWk1CgdRB2jkZYiSU3SVQ5oMWCaaAfwP7jbBXpXyH4pfjFeoYn9Ly8faLvFNskFKjeG8KgDmiFbBNNAOef3Hk4lXKgb9XZelkaEtvjn4WJzalhymhWyo2EbRw0tIpnPMKr4xEBNYdaEBQTFwx0hxGxaDqOipB26jaUzGFm0th4+AdDsK+jPQsClR2Nh5OKV/GrowKYeFCXZvEoJZQdIbTqz1DerWg2kHeNsDcOYm/l4Fz28SXXZMw7nurdJrGO1rm1OtNfXHvbdDTaGm0NtIShtACUpSKBIGoAb3JynGnHMJ4xSElSWolhayPcjPpX5SB37ZL0S0q7s4hQtO7oig4UVFc0oABpr1pPIWlK0lK0hSTrBFQbNtoaTmtIShO8kUHMxDzcNDuvvrS2y0krWtRoEpAqSe9bJ2aVGY0S6IaSvMaES8rna0SWlp072lY7+jbzGUXhUY9Lt6btQoMUkFUfDNJ0uja6B+UNoA069da4K4gKiCzd2dOguBITBvqIGcB/s1Hf3t/VvcxiDfKDufKt2eAejXgRDw4PryNp3kiorbC+5kyxVvo/Hzhx1UvbWHY+KpTO3mk7xIFNHrQOwDLYCFlkAxBS9huHhGEBDTTYolKRsHJytulxLe6zfiXrZOvS1Z7Zd+0cmJund6KilRMRJJc4+o1UtUOk5x3zo09+0Ow1DMoZh2kNMoFEoQkJSkbwA1cxMP9QifilfYbZKnTOd7nu8ZHJxIuVL79XaelkekIeAK4WIA55h2mhXCN8bRvGhEnmM8wovnEwMyYVmpVmRMPU5jyK6HEHbvg8NN+0pmMLNpbDx8A6HYV9GehYFKjsbDycQb4wlz5Ru7wDsa7VMPD1oVnfO8kbT3ttsMrmzPFa+78fNlOGWodDsfEjRXRzrSOEgAfop07wMtgIWWQDEFL2G4eEYQENNNiiUpGwcxjbiOzcO7+ZCKQuexiSmFaOncxqLqhvDZvngBpgHh5EX0vCq8t4A47K4Z/dSp3SYx+udQ11pB0qO3VtNP5GyhcLXL0w3ogkLWdOYZvNeYSNMU2NVN9Y2b40bBbJ+xYMjfauxed8iWrVmQkS4f9WUT6xRPuCdvuTwarZRdzIm9lyEvSxAXHytaopLdCVON5pz0JA1q0JIG3NpttgtinB3al/nHeHdUwAcU4xFJBWGa6SgpGnNrU1FTVWqmkQ1+7qRDKXG7xygJUKgORaG1fIogi3o0ut1yyT6e15VvRpdbrlkn09ryrejS63XLJPp7XlW9Gl1uuWSfT2vKt6NLrdcsk+nteVZ6/F1WmlOLvJJylIqQiMbUe8Aam2NGK0HNZc9ILsubtDPUETGUICgD6xAIrrAqr5K1rbJiuc/d66URNpg2pqMm5QtDahpSykHMPAVZyj2M3mMaMOmL+3eIh0ttzuEBVCPq91tLaj+Srf2HTv1w9vfH3Anz8nnrLzUDupREsLTz8OvVngfJUbRpFmnEPNIdZWlxtaQpK0moUDqIO0WxBvhC3Pk3ml5Idi3iUQzFaZ6hrJ/RFRU8I37Yd3Rm+LN9XYyZuOCAQ4lyOiqUAToo0jZnEaBvDTp1GWwELLIBiCl7DcPCMICGmmxRKUjYOYnkrhZ3J42WTBvdISLaUy6nbmqFKjeI1g7DacSe9mDd7N3bKktFRbZiggliLRroRv76TpBGjYbQWUKBDoEbd4l8DnlMxVEnhAKajsVPZt6YWF63X/pQ8m3phYXrdf8ApQ8m3phYXrdf+lDybemFhet1/wClDybemFhet1/6UPJt6YWF63X/AKUPJtfbFKf36aEnl0CYSFfOmGhSp157bmkgCo4ABq02ye8NHrmSx+bTpATO49ARue2Ha15h/SJoT8FI2HmcoXCtcli3Lz3Zhs2WOHOi2GU08zL/ACwNiCd7Qk8B0YP3/N4obzrm7g89mE1Q4SB5oQNvwht4NO/yL3XkgbrSZyYTFRoDmttJ9c6vYkfv2WkksnmMOIAB5xBoX3RpRCQ4Oyus6TQbSTq0kXZkEuuzJYeVSaHTDwbAoEjWo7VKO1R2nmMerrxV68OYyFlrW7x0M4iLZaAqpZTUKCf0s1Sqb+rbbAnEWDuwImTT1ampfEOh1l8CoacIAUFbc0gJ07KHfqISby2MYS9CTCDfZVqW08lST3wbebYXqlj5wW82wvVLHzgt5theqWPnBbzbC9UsfOC3m2F6pY+cFlR8GlJUqKhwkCpJcFB9dsXMUZTLZHHSqSxjcZNohBYJYOchgEUUSrVnUqKA1B10tkl3XikxcyvPENZkIpowUMpQ0uKKkqWpPAM0Cu+SNh5jGTDmGv8AXfKWg2zO4UFUHEK0DhbXT3J+o6d8HD+98wuBPX5PPGXW4HdsyJYcSc+HXqKwPtG0arMPNxDDbzKwtpxIWhSdSgRUEWvbeOBuvJnZhMF86nnW2gRnOr2JT/nQKm0lls8xgxBSlVUIWRuzqQS3Bw4Oz66Dao7Kk2uzIJddmSw8qk0OmHg2BQJGtR2qUdqjtPMX8vdLbl3efms1cACRmssg0W+5sQn9+wVNrtSieY0YjPREe6oNKUHIt9I5yGZroQiu3YkdknabSWVwcllULLZYwliDhkBtptOoAfadpO0mv8kZQeEfm1MRem68P/pQq5HQjY/hRtdQPyt8bdeutcBcZGoWHYu3e+KzGkURBRzp0JGxtw7ANitmo0AFkkKSCkgg6QRttiBgddu9T70bBFcnmbqitbzCc5txRNSVNkgV4QRw1s5kzzULIavFAqRsKmFg/JU29LROOuCX/Mrt6WicdcEv+ZXb0tE464Jf8yu3paJx1wS/5ldvS0Tjrgl/zK7JyZ5sVDPvDABNdJDKyQPltcHAa7t2oluNmrrk7j2l57anUbmygg1BDYJqfhEjgHNY/YXJvdLjOZHDoE/hk88lIoYtse5P6QGo7dW9TDbEl66jERKp2089BtJWWUAUW04KnMNdQJr2D37S2BvDjBflLaBStM9YFWoNmv8A+9GtRtda78uuxI4WUydgMwjCaDVnLO1SjtUdZPNTGAg5nCLhZjCQ8XDL9cy+2HEK7KSCDaNwbuBGOlx67jCVE1oy860PkQsC3KQw863v+9iPvLcpDDzre/72I+8tykMPOt7/AL2I+8tykMPOt7/vYj7y3KQw863v+9iPvLcpDDzre/72I+8tdy513bt1Mjk8FBrJqXENgrOinrzVWqu3ad880+y3EMOMvtodZcSULQtIUlSSKEEHWCNlsaMOI3D68KZ3IN1Elde3Vh1GuDcrUNk735JOsaDUipuRiXL5pdaJjZy83DRkAisSmoG6DYpArpqaCm+abRacTCd4r31hYKWw6jnKLcKxU5rKCeeWs7NhUeADYLYf3NllyLvsyyVoBVQKfiCmi33KaVK/UNg5rE3AmUXoin5nI3hKZq6StxObnMPL2kp1pJ2lOjbQkk2jMne+bC1BhyVRKQaAoiFJqN+iki3pf789TwH0ofut6X+/PU8B9KH7rel/vz1PAfSh+63pf789TwH0ofut6X+/PU8B9KH7rN5Pt+FrCVNy5sH3SorQPkBNrm5NxajG373zRl9hGkwkDnUWdOtxQBA1ak106xSplsBCyyAYgpew3DwjCAhppsUSlI2DmcfcLhfGXee8laQmfQiDVIGmKbGnM+ENh26jsphbiMu7G6Se8O7edzeduZzCVsLGkpproTXRsPBW04mM8xXvnDQMtYVmqVmQ0PU5jKK6XFnZvk8FN62HtzJbce7zUrlic9Xrn4hSQFvr2qPBsA2D5eYxDvvKbiyNUwmrmc6qqYeFQfwj694bw3zqHyArVezG2+4AGdm6hpEPBNE/54VH6sPLmS6413WpXLAVqrnvxChRb7m1R3hsA2Dvk/yTjJgY3M1RE7uY2lqOUS4/L60Q8dZU3sSr9HUdlNuFGME1uNFCR3nbiImUNK3ItuAh+DI0EJB0kDag6tlNRks2gJ3LGJhKYpqLg305yHWzUH9x3wdI9XxfwQTe6dCcXdiYSXxropFNOpIbeVX+EqkEhVK10aaDUak4cXMgLj3Zh5XApSt6gVExGbRT7tNKjwbANg+X2tOZZBzmVxUumTCH4OJQW3G1ioIP6xrB2EA2v5g7eO796fO+Ty6OmsBELHmSJZZKgQfcuEaEqG0mgoK6Bqwgw8g7hXebbKG3ZzEICo2JArVWvMSfyE6uHXwD2rjbgu7euaInV1zCQ8wdITGMvKKEvbA4CAaKA1imkadevCTDqBw/ke5JKImbRACouLzdZ/ITtCB9Z0neHJxNxXkNxmnGHHBHTnN5yBZVpSdhcVqQPr3haSSe9WNl9XYqKeO5Ajd4pSTuMI3XQhA+WidZ0knWbXJunKrmyNqVyVjc2k8844rSt5e1SztP1DUNH8mYs4Tyq/cOqKazIGeoTRuLSnQ5TUlwDWOHWOEaDCRt/MGp0pooeg23F1LTqd0hYmm0HUdG0EKHBbD3He7149yhJ3SSzJVB+FVVhw/or9z2FU7JslQUkKSQUkVBGo/y/eG8Unu5CeaZ5MoWBZ2F5YBVwJTrUeAA2xNx8jpstyV3HS9BwyzmGNKfw7uz8GPcA7/rtXrbYZ4DTKeOImt9lvwUI4d08y1/0h6umqyfWA8PPa9Wu0ik0ukMtal8mg2YODb9a00mgrvnaSdpOk/ydNZbBTaBcg5pCMRcI4KLaeQFpPeNsQ8nZh7dYy5ESGHNKjARKyUHgQ5rHYVXsi0BeXEnC7NhHhMIKDSqiYeNZ3Rg8CFGop8Ai12cpZJzG7zyMj8p+AXX/wDrWf8AFaQYsXJnbOfD3ggoZQHPNxq/M6hwc/QHvE2g55KY6nmKaQERXVuMQhdfkP8ALCiEpJUQANJJ2Wm9/LqSfOExvDLGVp1t+aEqX/ZSSfqtN8oC5EDnCFej5ioavM0MUgnsuFNr2Y/3onrphLtwzcpZcOanchu0QuuzOIoO8mvDa7mDV+L6RfnhP3HYBt01XEzNalvqHAg89X4WbbDjCS7tx1JiWG1R816siQCUfATqR2dJ06/5SeabfaW0+2hxpYopC0ggjeINr0YL3Kn+esysS6IV/tpercaf0NKP+m00yZogPLMqvGypo+tTEwxSRwEpJr2aC0Zk5XvZqYeMk0QNgS8tJ+tFPrsMHMTpecyBg3Mzfh5i2gfWsW5V2LXUkf4Wa+9tyrsWupI/ws197blXYtdSR/hZr723Kuxa6kj/AAs197blXYtdSR/hZr723Kuxa6kj/CzX3tuVdi11JH+Fmvvbcq7FrqSP8LNfe25V2LXUkf4Wa+9tyrsWupI/ws197blXYtdSR/hZr723Kuxa6kj/AAs197blXYtdSR/hZr723Kuxa6kj/CzX3tuVdi11JH+Fmvvbcq7FrqSP8LNfe25V2LXUkf4Wa+9tyrsWupI/ws197blXYtdSR/hZr723Kuxa6kj/AAs197blXYtdSR/hZr723Kuxa6kj/CzX3tuVdi11JH+Fmvvbcq7FrqSP8LNfe25V2LXUkf4Wa+9tyrsWupI/ws197blXYtdSR/hZr723Kuxa6kj/AAs197blXYtdSR/hZr723Kuxa6kj/CzX3tuVdi11JH+Fmvvbcq7FrqSP8LNfe25V2LXUkf4Wa+9tyrsWupI/ws197blXYtdSR/hZr723Kuxa6kj/AAs197blXYtdSR/hZr723Kuxa6kj/CzX3tuVdi11JH+Fmvvbcq7FrqSP8LNfe25V2LXUkf4Wa+9tyrsWupI/ws197blXYtdSR/hZr723Kuxa6kj/AAs197blXYtdSR/hZr723Kuxa6kj/CzX3tuVdi11JH+Fmvvbcq7FrqSP8LNfe25V2LXUkf4Wa+9tyrsWupI/ws197blXYtdSR/hZr723Kuxa6kj/AAs197blXYtdSR/hZr723Ktxa6jj/CrX3tuUxiXE1TEQKgFaFbrMGlDv0WbSjJrn7+aZrOZbBpOsMpW+od4hI+u0oybruQ+aqaTWZxqxrDeYyg96ij9dro3Gu3dJsCQyqHh3aUL5Ge6rsrVU04K0/wD9/wD//gADAP/Z;" vertex="1" parent="1">
          <mxGeometry x="178" y="-393" width="224.5" height="242.33" as="geometry" />
        </mxCell>
      </root>
    </mxGraphModel>
  </diagram>
</mxfile>
